<mxfile host="65bd71144e">
    <diagram id="9XCSC3eeRRchGNVlfb5L" name="Page-1">
        <mxGraphModel dx="3718" dy="1220" grid="0" gridSize="10" guides="0" tooltips="1" connect="1" arrows="1" fold="1" page="0" pageScale="1" pageWidth="850" pageHeight="1100" math="0" shadow="0">
            <root>
                <mxCell id="0"/>
                <mxCell id="1" parent="0"/>
                <mxCell id="ejB2oqNJLONClBfcNZHo-17" value="&lt;br&gt;&lt;br&gt;&lt;br&gt;&lt;br&gt;&lt;br&gt;&lt;br&gt;&lt;br&gt;&lt;br&gt;&lt;br&gt;&lt;br&gt;&lt;br&gt;&lt;br&gt;&lt;br&gt;&lt;br&gt;&lt;br&gt;&lt;br&gt;&lt;br&gt;&lt;br&gt;" style="rounded=1;whiteSpace=wrap;html=1;" parent="1" vertex="1">
                    <mxGeometry x="-1200" y="117" width="407" height="663" as="geometry"/>
                </mxCell>
                <mxCell id="91" value="Subnet&lt;br&gt;&lt;br&gt;&lt;br&gt;&lt;br&gt;&lt;br&gt;&lt;br&gt;&lt;br&gt;&lt;br&gt;&lt;br&gt;&lt;br&gt;&lt;br&gt;&lt;br&gt;&lt;br&gt;&lt;br&gt;&lt;br&gt;&lt;br&gt;&lt;br&gt;&lt;br&gt;&lt;br&gt;&lt;br&gt;&lt;br&gt;&lt;br&gt;&lt;br&gt;&lt;br&gt;&lt;br&gt;&lt;br&gt;&lt;br&gt;&lt;br&gt;&lt;br&gt;&lt;br&gt;&lt;br&gt;&lt;br&gt;&lt;br&gt;&lt;br&gt;&lt;br&gt;&lt;br&gt;" style="rounded=1;whiteSpace=wrap;html=1;" vertex="1" parent="1">
                    <mxGeometry x="-1110" y="187" width="295" height="543" as="geometry"/>
                </mxCell>
                <mxCell id="ejB2oqNJLONClBfcNZHo-26" style="edgeStyle=orthogonalEdgeStyle;rounded=0;orthogonalLoop=1;jettySize=auto;html=1;entryX=0;entryY=0.5;entryDx=0;entryDy=0;" parent="1" source="ejB2oqNJLONClBfcNZHo-17" target="ejB2oqNJLONClBfcNZHo-7" edge="1">
                    <mxGeometry relative="1" as="geometry">
                        <Array as="points">
                            <mxPoint x="-587" y="449"/>
                            <mxPoint x="-587" y="510"/>
                        </Array>
                    </mxGeometry>
                </mxCell>
                <mxCell id="ejB2oqNJLONClBfcNZHo-27" value="IP filter&lt;br&gt;Certificate - MTLS&lt;br&gt;Basic http key" style="edgeLabel;html=1;align=center;verticalAlign=middle;resizable=0;points=[];" parent="ejB2oqNJLONClBfcNZHo-26" vertex="1" connectable="0">
                    <mxGeometry x="0.2028" relative="1" as="geometry">
                        <mxPoint as="offset"/>
                    </mxGeometry>
                </mxCell>
                <mxCell id="23" style="edgeStyle=orthogonalEdgeStyle;rounded=0;orthogonalLoop=1;jettySize=auto;html=1;entryX=0.295;entryY=0.005;entryDx=0;entryDy=0;entryPerimeter=0;" parent="1" source="ejB2oqNJLONClBfcNZHo-17" target="ejB2oqNJLONClBfcNZHo-14" edge="1">
                    <mxGeometry relative="1" as="geometry">
                        <mxPoint x="-587" y="824" as="targetPoint"/>
                        <Array as="points">
                            <mxPoint x="-587" y="449"/>
                        </Array>
                    </mxGeometry>
                </mxCell>
                <mxCell id="38" style="edgeStyle=orthogonalEdgeStyle;rounded=0;orthogonalLoop=1;jettySize=auto;html=1;entryX=0.75;entryY=0;entryDx=0;entryDy=0;" parent="1" source="ejB2oqNJLONClBfcNZHo-17" target="32" edge="1">
                    <mxGeometry relative="1" as="geometry"/>
                </mxCell>
                <mxCell id="86" style="edgeStyle=orthogonalEdgeStyle;rounded=0;orthogonalLoop=1;jettySize=auto;html=1;" edge="1" parent="1" source="ejB2oqNJLONClBfcNZHo-17" target="75">
                    <mxGeometry relative="1" as="geometry"/>
                </mxCell>
                <mxCell id="12" style="edgeStyle=orthogonalEdgeStyle;rounded=0;orthogonalLoop=1;jettySize=auto;html=1;entryX=0.81;entryY=-0.006;entryDx=0;entryDy=0;entryPerimeter=0;" parent="1" source="ejB2oqNJLONClBfcNZHo-7" target="ejB2oqNJLONClBfcNZHo-14" edge="1">
                    <mxGeometry relative="1" as="geometry"/>
                </mxCell>
                <mxCell id="13" value="Express Route" style="edgeLabel;html=1;align=center;verticalAlign=middle;resizable=0;points=[];" parent="12" vertex="1" connectable="0">
                    <mxGeometry x="-0.1911" relative="1" as="geometry">
                        <mxPoint y="1" as="offset"/>
                    </mxGeometry>
                </mxCell>
                <mxCell id="ejB2oqNJLONClBfcNZHo-7" value="&lt;br&gt;&lt;br&gt;&lt;br&gt;&lt;br&gt;&lt;br&gt;&lt;br&gt;&lt;br&gt;&lt;br&gt;&lt;br&gt;&lt;br&gt;&lt;br&gt;&lt;br&gt;&lt;br&gt;&lt;br&gt;&lt;br&gt;&lt;br&gt;&lt;br&gt;&lt;br&gt;" style="rounded=1;whiteSpace=wrap;html=1;" parent="1" vertex="1">
                    <mxGeometry x="-380" y="230" width="300" height="560" as="geometry"/>
                </mxCell>
                <mxCell id="ejB2oqNJLONClBfcNZHo-1" value="APIM ADS Questions&lt;br&gt;&lt;br&gt;- What type of apis are you onboarding?&amp;nbsp; &amp;nbsp;&lt;br&gt;- What deployment model works for you?&amp;nbsp;&amp;nbsp;&lt;br&gt;- What tier of apim is the right for you?&amp;nbsp;&amp;nbsp;&lt;br&gt;- What security will you add to your apis?&amp;nbsp;&lt;br&gt;- What products are we going to define?&amp;nbsp;&lt;br&gt;- What teams and processess need to be in place to manage the APIM?" style="text;html=1;resizable=0;autosize=1;align=center;verticalAlign=middle;points=[];fillColor=none;strokeColor=none;rounded=0;" parent="1" vertex="1">
                    <mxGeometry x="-1900" y="62" width="392" height="115" as="geometry"/>
                </mxCell>
                <mxCell id="ejB2oqNJLONClBfcNZHo-2" value="" style="shape=image;verticalLabelPosition=bottom;verticalAlign=top;imageAspect=0;aspect=fixed;image=data:image/svg+xml,PHN2ZyB4bWxuczpkYz0iaHR0cDovL3B1cmwub3JnL2RjL2VsZW1lbnRzLzEuMS8iIHhtbG5zOmNjPSJodHRwOi8vY3JlYXRpdmVjb21tb25zLm9yZy9ucyMiIHhtbG5zOnJkZj0iaHR0cDovL3d3dy53My5vcmcvMTk5OS8wMi8yMi1yZGYtc3ludGF4LW5zIyIgeG1sbnM6c3ZnPSJodHRwOi8vd3d3LnczLm9yZy8yMDAwL3N2ZyIgeG1sbnM9Imh0dHA6Ly93d3cudzMub3JnLzIwMDAvc3ZnIiB4bWxuczpzb2RpcG9kaT0iaHR0cDovL3NvZGlwb2RpLnNvdXJjZWZvcmdlLm5ldC9EVEQvc29kaXBvZGktMC5kdGQiIHhtbG5zOmlua3NjYXBlPSJodHRwOi8vd3d3Lmlua3NjYXBlLm9yZy9uYW1lc3BhY2VzL2lua3NjYXBlIiB3aWR0aD0iNTAiIGhlaWdodD0iNTAiIHZlcnNpb249IjEuMSIgaWQ9InN2ZzYiIHNvZGlwb2RpOmRvY25hbWU9IkFQSSBNYW5hZ2VtZW50IFNlcnZpY2VzLnN2ZyIgaW5rc2NhcGU6dmVyc2lvbj0iMC45Mi4zICgyNDA1NTQ2LCAyMDE4LTAzLTExKSIgdmlld0JveD0iMCAwIDUwIDUwIj4mI3hhOyAgPG1ldGFkYXRhIGlkPSJtZXRhZGF0YTEyIj4mI3hhOyAgICA8cmRmOlJERj4mI3hhOyAgICAgIDxjYzpXb3JrIHJkZjphYm91dD0iIj4mI3hhOyAgICAgICAgPGRjOmZvcm1hdD5pbWFnZS9zdmcreG1sPC9kYzpmb3JtYXQ+JiN4YTsgICAgICAgIDxkYzp0eXBlIHJkZjpyZXNvdXJjZT0iaHR0cDovL3B1cmwub3JnL2RjL2RjbWl0eXBlL1N0aWxsSW1hZ2UiLz4mI3hhOyAgICAgICAgPGRjOnRpdGxlLz4mI3hhOyAgICAgIDwvY2M6V29yaz4mI3hhOyAgICA8L3JkZjpSREY+JiN4YTsgIDwvbWV0YWRhdGE+JiN4YTsgIDxkZWZzIGlkPSJkZWZzMTAiLz4mI3hhOyAgPHNvZGlwb2RpOm5hbWVkdmlldyBwYWdlY29sb3I9IiNmZmZmZmYiIGJvcmRlcmNvbG9yPSIjNjY2NjY2IiBib3JkZXJvcGFjaXR5PSIxIiBvYmplY3R0b2xlcmFuY2U9IjEwIiBncmlkdG9sZXJhbmNlPSIxMCIgZ3VpZGV0b2xlcmFuY2U9IjEwIiBpbmtzY2FwZTpwYWdlb3BhY2l0eT0iMCIgaW5rc2NhcGU6cGFnZXNoYWRvdz0iMiIgaW5rc2NhcGU6d2luZG93LXdpZHRoPSI2NDAiIGlua3NjYXBlOndpbmRvdy1oZWlnaHQ9IjQ4MCIgaWQ9Im5hbWVkdmlldzgiIHNob3dncmlkPSJmYWxzZSIgaW5rc2NhcGU6em9vbT0iNC43MiIgaW5rc2NhcGU6Y3g9IjI1IiBpbmtzY2FwZTpjeT0iMjUiIGlua3NjYXBlOndpbmRvdy14PSIwIiBpbmtzY2FwZTp3aW5kb3cteT0iMCIgaW5rc2NhcGU6d2luZG93LW1heGltaXplZD0iMCIgaW5rc2NhcGU6Y3VycmVudC1sYXllcj0ic3ZnNiIvPiYjeGE7ICA8cGF0aCBmaWxsPSIjNTlCNEQ5IiBkPSJNMjAuNSAzMi41aC04LjljLTQuNCAwLTgtMy42LTgtOC4xczMuNC04LjEgOC04LjFjLjggMCAxLjcuMiAyLjcuM2wxLjcuNS41LTEuN0MxOC4xIDEwLjIgMjMuMSA3IDI4LjggNyAzNS43IDcgNDEgMTIuMyA0MSAxOS4yYzAgMS4xLS4yIDIuMi0uNSAzLjNsLS43IDIuNSAyLjctLjNoLjVjMiAwIDMuNiAxLjcgMy42IDMuNnMtMS40IDMuMy0zLjEgMy42aC04LjljLS4zLTIuNS0xLjYtNC43LTMuMy02LjQtMi4yLTIuMi01LjItMy41LTguMy0zLjUtMi4yIDAtNC40LjYtNi4xIDEuN2wxLjkgM2MxLjQtLjggMi44LTEuMSA0LjQtMS4xIDIuMiAwIDQuNC44IDUuOCAyLjUgMS42IDEuNiAyLjUgMy42IDIuNSA1LjhzLS44IDQuNC0yLjUgNS44Yy0xLjYgMS43LTMuNiAyLjUtNS44IDIuNS0xLjYgMC0zLjEtLjUtNC40LTEuNGwtMS45IDNjMS45IDEuMSA0LjEgMS45IDYuMSAxLjkgMy4xIDAgNi4xLTEuMSA4LjMtMy40IDEuOS0xLjkgMy00LjQgMy4zLTdINDMuOWMzLjYtLjMgNi4zLTMuNCA2LjMtNy4yIDAtMy0yLjgtNS44LTYuMS02LjQuMi0uNi4yLS45LjItMS45QzQ0LjMgMTEgMzguMSA0IDI4LjIgNCAyMS45IDQgMTYuMyA3LjYgMTQgMTMuNGMtLjggMC0xLjQtLjMtMi4zLS4zQzUuMiAxMyAwIDE4IDAgMjQuNGMwIDYuMyA1LjIgMTEuMyAxMS40IDExLjNoOS44bC0uNy0zLjJ6IiBpZD0icGF0aDIiLz4mI3hhOyAgPGNpcmNsZSBmaWxsPSIjNjgyMTdBIiBjeD0iMjIuOCIgY3k9IjMzLjgiIHI9IjUuNiIgaWQ9ImNpcmNsZTQiLz4mI3hhOzwvc3ZnPg==" parent="1" vertex="1">
                    <mxGeometry x="-885" y="126" width="50" height="50" as="geometry"/>
                </mxCell>
                <mxCell id="ejB2oqNJLONClBfcNZHo-8" value="Azure APIs" style="text;html=1;resizable=0;autosize=1;align=center;verticalAlign=middle;points=[];fillColor=none;strokeColor=none;rounded=0;" parent="1" vertex="1">
                    <mxGeometry x="-265" y="246" width="69" height="18" as="geometry"/>
                </mxCell>
                <mxCell id="ejB2oqNJLONClBfcNZHo-14" value="&lt;br&gt;&lt;br&gt;&lt;br&gt;&lt;br&gt;&lt;br&gt;&lt;br&gt;&lt;br&gt;&lt;br&gt;&lt;br&gt;&lt;br&gt;&lt;br&gt;&lt;br&gt;&lt;br&gt;&lt;br&gt;&lt;br&gt;&lt;br&gt;&lt;br&gt;&lt;br&gt;" style="rounded=1;whiteSpace=wrap;html=1;" parent="1" vertex="1">
                    <mxGeometry x="-783" y="880" width="663" height="170" as="geometry"/>
                </mxCell>
                <mxCell id="ejB2oqNJLONClBfcNZHo-15" value="On- Prem" style="text;html=1;resizable=0;autosize=1;align=center;verticalAlign=middle;points=[];fillColor=none;strokeColor=none;rounded=0;" parent="1" vertex="1">
                    <mxGeometry x="-693" y="903" width="70" height="20" as="geometry"/>
                </mxCell>
                <mxCell id="ejB2oqNJLONClBfcNZHo-16" value="Dns Server" style="shape=image;verticalLabelPosition=bottom;verticalAlign=top;imageAspect=0;aspect=fixed;image=data:image/svg+xml,PHN2ZyB4bWxuczpkYz0iaHR0cDovL3B1cmwub3JnL2RjL2VsZW1lbnRzLzEuMS8iIHhtbG5zOmNjPSJodHRwOi8vY3JlYXRpdmVjb21tb25zLm9yZy9ucyMiIHhtbG5zOnJkZj0iaHR0cDovL3d3dy53My5vcmcvMTk5OS8wMi8yMi1yZGYtc3ludGF4LW5zIyIgeG1sbnM6c3ZnPSJodHRwOi8vd3d3LnczLm9yZy8yMDAwL3N2ZyIgeG1sbnM9Imh0dHA6Ly93d3cudzMub3JnLzIwMDAvc3ZnIiB4bWxuczpzb2RpcG9kaT0iaHR0cDovL3NvZGlwb2RpLnNvdXJjZWZvcmdlLm5ldC9EVEQvc29kaXBvZGktMC5kdGQiIHhtbG5zOmlua3NjYXBlPSJodHRwOi8vd3d3Lmlua3NjYXBlLm9yZy9uYW1lc3BhY2VzL2lua3NjYXBlIiB2ZXJzaW9uPSIxLjEiIGlkPSJMYXllcl8xIiB4PSIwcHgiIHk9IjBweCIgd2lkdGg9IjUwcHgiIGhlaWdodD0iNTBweCIgdmlld0JveD0iMCAwIDUwIDUwIiBlbmFibGUtYmFja2dyb3VuZD0ibmV3IDAgMCA1MCA1MCIgeG1sOnNwYWNlPSJwcmVzZXJ2ZSIgc29kaXBvZGk6ZG9jbmFtZT0iVk0uc3ZnIiBpbmtzY2FwZTp2ZXJzaW9uPSIwLjkyLjMgKDI0MDU1NDYsIDIwMTgtMDMtMTEpIj48bWV0YWRhdGEgaWQ9Im1ldGFkYXRhMTY1MiI+PHJkZjpSREY+PGNjOldvcmsgcmRmOmFib3V0PSIiPjxkYzpmb3JtYXQ+aW1hZ2Uvc3ZnK3htbDwvZGM6Zm9ybWF0PjxkYzp0eXBlIHJkZjpyZXNvdXJjZT0iaHR0cDovL3B1cmwub3JnL2RjL2RjbWl0eXBlL1N0aWxsSW1hZ2UiLz48ZGM6dGl0bGUvPjwvY2M6V29yaz48L3JkZjpSREY+PC9tZXRhZGF0YT48ZGVmcyBpZD0iZGVmczE2NTAiLz48c29kaXBvZGk6bmFtZWR2aWV3IHBhZ2Vjb2xvcj0iI2ZmZmZmZiIgYm9yZGVyY29sb3I9IiM2NjY2NjYiIGJvcmRlcm9wYWNpdHk9IjEiIG9iamVjdHRvbGVyYW5jZT0iMTAiIGdyaWR0b2xlcmFuY2U9IjEwIiBndWlkZXRvbGVyYW5jZT0iMTAiIGlua3NjYXBlOnBhZ2VvcGFjaXR5PSIwIiBpbmtzY2FwZTpwYWdlc2hhZG93PSIyIiBpbmtzY2FwZTp3aW5kb3ctd2lkdGg9IjY0MCIgaW5rc2NhcGU6d2luZG93LWhlaWdodD0iNDgwIiBpZD0ibmFtZWR2aWV3MTY0OCIgc2hvd2dyaWQ9ImZhbHNlIiBpbmtzY2FwZTp6b29tPSI2LjI2IiBpbmtzY2FwZTpjeD0iMjUiIGlua3NjYXBlOmN5PSIyNSIgaW5rc2NhcGU6d2luZG93LXg9IjAiIGlua3NjYXBlOndpbmRvdy15PSIwIiBpbmtzY2FwZTp3aW5kb3ctbWF4aW1pemVkPSIxIiBpbmtzY2FwZTpjdXJyZW50LWxheWVyPSJMYXllcl8xIi8+JiN4YTs8cGF0aCBmaWxsPSIjN0E3QTdBIiBkPSJNMzMsMzhoLTEuMjA3SDE5Ljg5MmgtMC42MjFDMjAuOTIsNDMuOTk5LDE4LjcwNSw0NC44NTksOSw0NC44NTlWNDhoMTIuMzQyaDkuMDExSDQydi0zLjE0MSAgYy05LjcwNSwwLTEwLjY1Ni0wLjg1Ny05LjAwNS02Ljg1OSIgaWQ9InBhdGgxNjI5Ii8+JiN4YTs8cGF0aCBmaWxsPSIjQTBBMUEyIiBkPSJNNDYuOTgsMkgyLjcxOUMxLjIxNSwyLDAuMDAyLDMuMzQ1LDAuMDAyLDQuODQ3djMxLjMyOWMwLDEuNDkzLDEuMjEzLDIuODIzLDIuNzE3LDIuODIzSDQ2Ljk4ICBjMS41MDEsMCwzLjAyMS0xLjMzLDMuMDIxLTIuODIzVjQuODQ3QzUwLjAwMSwzLjM0MSw0OC40ODEsMiw0Ni45OCwyIiBpZD0icGF0aDE2MzEiLz4mI3hhOzxwYXRoIG9wYWNpdHk9IjAuMiIgZmlsbD0iI0ZGRkZGRiIgZW5hYmxlLWJhY2tncm91bmQ9Im5ldyAgICAiIGQ9Ik00Ny4wMTEsMi4wMDNjLTAuMDExLDAtMC4wMjEtMC4wMDItMC4wMzEtMC4wMDJIMi43MTggIGMtMS41MDQsMC0yLjcxNywxLjM0NC0yLjcxNywyLjg0N3YzMS4zMjhDMC4wMDEsMzcuNjcsMS4yMTQsMzksMi43MTgsMzloMS4wNTNMNDcuMDExLDIuMDAzeiIgaWQ9InBhdGgxNjMzIi8+JiN4YTs8cG9seWdvbiBmaWxsPSIjNTlCNEQ5IiBwb2ludHM9IjQ2LDYgNDYsMzUgNCwzNSA0LDYgIiBpZD0icG9seWdvbjE2MzUiLz4mI3hhOzxyZWN0IHg9IjkiIHk9IjQ1IiBmaWxsPSIjQTBBMUEyIiB3aWR0aD0iMzMiIGhlaWdodD0iMyIgaWQ9InJlY3QxNjM3Ii8+JiN4YTs8cGF0aCBmaWxsPSIjQjhENDMyIiBkPSJNMjUuNTE4LDQuMDk1YzAsMC4zOTItMC4zMTgsMC43MS0wLjcxLDAuNzFjLTAuMzkzLDAtMC43MDktMC4zMTgtMC43MDktMC43MWMwLTAuMzkzLDAuMzE2LTAuNzEsMC43MDktMC43MSAgQzI1LjIsMy4zODUsMjUuNTE4LDMuNzAyLDI1LjUxOCw0LjA5NSIgaWQ9InBhdGgxNjM5Ii8+JiN4YTs8cGF0aCBmaWxsPSIjRkZGRkZGIiBkPSJNMjUuMDI4LDE5LjM5NGMtMC4wNDUsMC0wLjA5MS0wLjAxNC0wLjEzNC0wLjAzOGwtOC44MDQtNS4wODJjLTAuMDgxLTAuMDQ4LTAuMTMyLTAuMTM3LTAuMTMyLTAuMjMxICBjMC0wLjA5NSwwLjA1MS0wLjE4MywwLjEzMi0wLjIzbDguNzUxLTUuMDQ5YzAuMDgyLTAuMDQ2LDAuMTgyLTAuMDQ2LDAuMjYzLDBsOC44MDcsNS4wODRjMC4wODIsMC4wNDcsMC4xMzEsMC4xMzUsMC4xMzEsMC4yMyAgYzAsMC4wOTYtMC4wNDksMC4xODMtMC4xMzEsMC4yM2wtOC43NDgsNS4wNDhDMjUuMTIsMTkuMzgsMjUuMDc2LDE5LjM5NCwyNS4wMjgsMTkuMzk0IiBpZD0icGF0aDE2NDEiLz4mI3hhOzxwYXRoIG9wYWNpdHk9IjAuNyIgZmlsbD0iI0ZGRkZGRiIgZW5hYmxlLWJhY2tncm91bmQ9Im5ldyAgICAiIGQ9Ik0yMy43NjMsMzEuNzQ2Yy0wLjA1LDAtMC4wOTUtMC4wMTItMC4xMzQtMC4wMzZsLTguNzc4LTUuMDY2ICBjLTAuMDg1LTAuMDQ3LTAuMTM2LTAuMTMzLTAuMTM2LTAuMjMxVjE2LjI0N2MwLTAuMDk2LDAuMDUxLTAuMTgzLDAuMTM2LTAuMjMxYzAuMDgxLTAuMDQ5LDAuMTgxLTAuMDQ5LDAuMjY4LDBsOC43NzcsNS4wNjQgIGMwLjA3OCwwLjA1LDAuMTMsMC4xMzcsMC4xMywwLjIzM3YxMC4xNjZjMCwwLjA5Ny0wLjA1MiwwLjE4My0wLjEzLDAuMjMxQzIzLjg1MiwzMS43MzQsMjMuODA2LDMxLjc0NiwyMy43NjMsMzEuNzQ2IiBpZD0icGF0aDE2NDMiLz4mI3hhOzxwYXRoIG9wYWNpdHk9IjAuNCIgZmlsbD0iI0ZGRkZGRiIgZW5hYmxlLWJhY2tncm91bmQ9Im5ldyAgICAiIGQ9Ik0yNi4yNDgsMzEuNzQ2Yy0wLjA0OCwwLTAuMDkzLTAuMDEyLTAuMTM4LTAuMDM2ICBjLTAuMDc4LTAuMDQ4LTAuMTI5LTAuMTM0LTAuMTI5LTAuMjMxVjIxLjM3N2MwLTAuMDk0LDAuMDUxLTAuMTgyLDAuMTI5LTAuMjMxbDguNzc3LTUuMDY0YzAuMDg0LTAuMDQ4LDAuMTgyLTAuMDQ4LDAuMjY0LDAgIGMwLjA4NCwwLjA0NywwLjEzNSwwLjEzNSwwLjEzNSwwLjIzdjEwLjEwMWMwLDAuMDk4LTAuMDUxLDAuMTg0LTAuMTM1LDAuMjMxbC04Ljc3NCw1LjA2NiAgQzI2LjM0LDMxLjczNCwyNi4yOTQsMzEuNzQ2LDI2LjI0OCwzMS43NDYiIGlkPSJwYXRoMTY0NSIvPiYjeGE7PC9zdmc+" parent="1" vertex="1">
                    <mxGeometry x="-683" y="940" width="50" height="50" as="geometry"/>
                </mxCell>
                <mxCell id="ejB2oqNJLONClBfcNZHo-18" value="Azure APIM -&amp;nbsp; Internal Vnet" style="text;html=1;resizable=0;autosize=1;align=center;verticalAlign=middle;points=[];fillColor=none;strokeColor=none;rounded=0;" parent="1" vertex="1">
                    <mxGeometry x="-1076" y="139" width="160" height="20" as="geometry"/>
                </mxCell>
                <mxCell id="ejB2oqNJLONClBfcNZHo-19" value="Data Services" style="shape=image;verticalLabelPosition=bottom;verticalAlign=top;imageAspect=0;aspect=fixed;image=data:image/svg+xml,PHN2ZyB4bWxuczpkYz0iaHR0cDovL3B1cmwub3JnL2RjL2VsZW1lbnRzLzEuMS8iIHhtbG5zOmNjPSJodHRwOi8vY3JlYXRpdmVjb21tb25zLm9yZy9ucyMiIHhtbG5zOnJkZj0iaHR0cDovL3d3dy53My5vcmcvMTk5OS8wMi8yMi1yZGYtc3ludGF4LW5zIyIgeG1sbnM6c3ZnPSJodHRwOi8vd3d3LnczLm9yZy8yMDAwL3N2ZyIgeG1sbnM9Imh0dHA6Ly93d3cudzMub3JnLzIwMDAvc3ZnIiB4bWxuczpzb2RpcG9kaT0iaHR0cDovL3NvZGlwb2RpLnNvdXJjZWZvcmdlLm5ldC9EVEQvc29kaXBvZGktMC5kdGQiIHhtbG5zOmlua3NjYXBlPSJodHRwOi8vd3d3Lmlua3NjYXBlLm9yZy9uYW1lc3BhY2VzL2lua3NjYXBlIiB2ZXJzaW9uPSIxLjEiIGlkPSJMYXllcl8xIiB4PSIwcHgiIHk9IjBweCIgd2lkdGg9IjUwcHgiIGhlaWdodD0iNTBweCIgdmlld0JveD0iMCAwIDUwIDUwIiBlbmFibGUtYmFja2dyb3VuZD0ibmV3IDAgMCA1MCA1MCIgeG1sOnNwYWNlPSJwcmVzZXJ2ZSIgc29kaXBvZGk6ZG9jbmFtZT0iVk0uc3ZnIiBpbmtzY2FwZTp2ZXJzaW9uPSIwLjkyLjMgKDI0MDU1NDYsIDIwMTgtMDMtMTEpIj48bWV0YWRhdGEgaWQ9Im1ldGFkYXRhMTY1MiI+PHJkZjpSREY+PGNjOldvcmsgcmRmOmFib3V0PSIiPjxkYzpmb3JtYXQ+aW1hZ2Uvc3ZnK3htbDwvZGM6Zm9ybWF0PjxkYzp0eXBlIHJkZjpyZXNvdXJjZT0iaHR0cDovL3B1cmwub3JnL2RjL2RjbWl0eXBlL1N0aWxsSW1hZ2UiLz48ZGM6dGl0bGUvPjwvY2M6V29yaz48L3JkZjpSREY+PC9tZXRhZGF0YT48ZGVmcyBpZD0iZGVmczE2NTAiLz48c29kaXBvZGk6bmFtZWR2aWV3IHBhZ2Vjb2xvcj0iI2ZmZmZmZiIgYm9yZGVyY29sb3I9IiM2NjY2NjYiIGJvcmRlcm9wYWNpdHk9IjEiIG9iamVjdHRvbGVyYW5jZT0iMTAiIGdyaWR0b2xlcmFuY2U9IjEwIiBndWlkZXRvbGVyYW5jZT0iMTAiIGlua3NjYXBlOnBhZ2VvcGFjaXR5PSIwIiBpbmtzY2FwZTpwYWdlc2hhZG93PSIyIiBpbmtzY2FwZTp3aW5kb3ctd2lkdGg9IjY0MCIgaW5rc2NhcGU6d2luZG93LWhlaWdodD0iNDgwIiBpZD0ibmFtZWR2aWV3MTY0OCIgc2hvd2dyaWQ9ImZhbHNlIiBpbmtzY2FwZTp6b29tPSI2LjI2IiBpbmtzY2FwZTpjeD0iMjUiIGlua3NjYXBlOmN5PSIyNSIgaW5rc2NhcGU6d2luZG93LXg9IjAiIGlua3NjYXBlOndpbmRvdy15PSIwIiBpbmtzY2FwZTp3aW5kb3ctbWF4aW1pemVkPSIxIiBpbmtzY2FwZTpjdXJyZW50LWxheWVyPSJMYXllcl8xIi8+JiN4YTs8cGF0aCBmaWxsPSIjN0E3QTdBIiBkPSJNMzMsMzhoLTEuMjA3SDE5Ljg5MmgtMC42MjFDMjAuOTIsNDMuOTk5LDE4LjcwNSw0NC44NTksOSw0NC44NTlWNDhoMTIuMzQyaDkuMDExSDQydi0zLjE0MSAgYy05LjcwNSwwLTEwLjY1Ni0wLjg1Ny05LjAwNS02Ljg1OSIgaWQ9InBhdGgxNjI5Ii8+JiN4YTs8cGF0aCBmaWxsPSIjQTBBMUEyIiBkPSJNNDYuOTgsMkgyLjcxOUMxLjIxNSwyLDAuMDAyLDMuMzQ1LDAuMDAyLDQuODQ3djMxLjMyOWMwLDEuNDkzLDEuMjEzLDIuODIzLDIuNzE3LDIuODIzSDQ2Ljk4ICBjMS41MDEsMCwzLjAyMS0xLjMzLDMuMDIxLTIuODIzVjQuODQ3QzUwLjAwMSwzLjM0MSw0OC40ODEsMiw0Ni45OCwyIiBpZD0icGF0aDE2MzEiLz4mI3hhOzxwYXRoIG9wYWNpdHk9IjAuMiIgZmlsbD0iI0ZGRkZGRiIgZW5hYmxlLWJhY2tncm91bmQ9Im5ldyAgICAiIGQ9Ik00Ny4wMTEsMi4wMDNjLTAuMDExLDAtMC4wMjEtMC4wMDItMC4wMzEtMC4wMDJIMi43MTggIGMtMS41MDQsMC0yLjcxNywxLjM0NC0yLjcxNywyLjg0N3YzMS4zMjhDMC4wMDEsMzcuNjcsMS4yMTQsMzksMi43MTgsMzloMS4wNTNMNDcuMDExLDIuMDAzeiIgaWQ9InBhdGgxNjMzIi8+JiN4YTs8cG9seWdvbiBmaWxsPSIjNTlCNEQ5IiBwb2ludHM9IjQ2LDYgNDYsMzUgNCwzNSA0LDYgIiBpZD0icG9seWdvbjE2MzUiLz4mI3hhOzxyZWN0IHg9IjkiIHk9IjQ1IiBmaWxsPSIjQTBBMUEyIiB3aWR0aD0iMzMiIGhlaWdodD0iMyIgaWQ9InJlY3QxNjM3Ii8+JiN4YTs8cGF0aCBmaWxsPSIjQjhENDMyIiBkPSJNMjUuNTE4LDQuMDk1YzAsMC4zOTItMC4zMTgsMC43MS0wLjcxLDAuNzFjLTAuMzkzLDAtMC43MDktMC4zMTgtMC43MDktMC43MWMwLTAuMzkzLDAuMzE2LTAuNzEsMC43MDktMC43MSAgQzI1LjIsMy4zODUsMjUuNTE4LDMuNzAyLDI1LjUxOCw0LjA5NSIgaWQ9InBhdGgxNjM5Ii8+JiN4YTs8cGF0aCBmaWxsPSIjRkZGRkZGIiBkPSJNMjUuMDI4LDE5LjM5NGMtMC4wNDUsMC0wLjA5MS0wLjAxNC0wLjEzNC0wLjAzOGwtOC44MDQtNS4wODJjLTAuMDgxLTAuMDQ4LTAuMTMyLTAuMTM3LTAuMTMyLTAuMjMxICBjMC0wLjA5NSwwLjA1MS0wLjE4MywwLjEzMi0wLjIzbDguNzUxLTUuMDQ5YzAuMDgyLTAuMDQ2LDAuMTgyLTAuMDQ2LDAuMjYzLDBsOC44MDcsNS4wODRjMC4wODIsMC4wNDcsMC4xMzEsMC4xMzUsMC4xMzEsMC4yMyAgYzAsMC4wOTYtMC4wNDksMC4xODMtMC4xMzEsMC4yM2wtOC43NDgsNS4wNDhDMjUuMTIsMTkuMzgsMjUuMDc2LDE5LjM5NCwyNS4wMjgsMTkuMzk0IiBpZD0icGF0aDE2NDEiLz4mI3hhOzxwYXRoIG9wYWNpdHk9IjAuNyIgZmlsbD0iI0ZGRkZGRiIgZW5hYmxlLWJhY2tncm91bmQ9Im5ldyAgICAiIGQ9Ik0yMy43NjMsMzEuNzQ2Yy0wLjA1LDAtMC4wOTUtMC4wMTItMC4xMzQtMC4wMzZsLTguNzc4LTUuMDY2ICBjLTAuMDg1LTAuMDQ3LTAuMTM2LTAuMTMzLTAuMTM2LTAuMjMxVjE2LjI0N2MwLTAuMDk2LDAuMDUxLTAuMTgzLDAuMTM2LTAuMjMxYzAuMDgxLTAuMDQ5LDAuMTgxLTAuMDQ5LDAuMjY4LDBsOC43NzcsNS4wNjQgIGMwLjA3OCwwLjA1LDAuMTMsMC4xMzcsMC4xMywwLjIzM3YxMC4xNjZjMCwwLjA5Ny0wLjA1MiwwLjE4My0wLjEzLDAuMjMxQzIzLjg1MiwzMS43MzQsMjMuODA2LDMxLjc0NiwyMy43NjMsMzEuNzQ2IiBpZD0icGF0aDE2NDMiLz4mI3hhOzxwYXRoIG9wYWNpdHk9IjAuNCIgZmlsbD0iI0ZGRkZGRiIgZW5hYmxlLWJhY2tncm91bmQ9Im5ldyAgICAiIGQ9Ik0yNi4yNDgsMzEuNzQ2Yy0wLjA0OCwwLTAuMDkzLTAuMDEyLTAuMTM4LTAuMDM2ICBjLTAuMDc4LTAuMDQ4LTAuMTI5LTAuMTM0LTAuMTI5LTAuMjMxVjIxLjM3N2MwLTAuMDk0LDAuMDUxLTAuMTgyLDAuMTI5LTAuMjMxbDguNzc3LTUuMDY0YzAuMDg0LTAuMDQ4LDAuMTgyLTAuMDQ4LDAuMjY0LDAgIGMwLjA4NCwwLjA0NywwLjEzNSwwLjEzNSwwLjEzNSwwLjIzdjEwLjEwMWMwLDAuMDk4LTAuMDUxLDAuMTg0LTAuMTM1LDAuMjMxbC04Ljc3NCw1LjA2NiAgQzI2LjM0LDMxLjczNCwyNi4yOTQsMzEuNzQ2LDI2LjI0OCwzMS43NDYiIGlkPSJwYXRoMTY0NSIvPiYjeGE7PC9zdmc+" parent="1" vertex="1">
                    <mxGeometry x="-573" y="940" width="50" height="50" as="geometry"/>
                </mxCell>
                <mxCell id="ejB2oqNJLONClBfcNZHo-20" value="Data Services" style="shape=image;verticalLabelPosition=bottom;verticalAlign=top;imageAspect=0;aspect=fixed;image=data:image/svg+xml,PHN2ZyB4bWxuczpkYz0iaHR0cDovL3B1cmwub3JnL2RjL2VsZW1lbnRzLzEuMS8iIHhtbG5zOmNjPSJodHRwOi8vY3JlYXRpdmVjb21tb25zLm9yZy9ucyMiIHhtbG5zOnJkZj0iaHR0cDovL3d3dy53My5vcmcvMTk5OS8wMi8yMi1yZGYtc3ludGF4LW5zIyIgeG1sbnM6c3ZnPSJodHRwOi8vd3d3LnczLm9yZy8yMDAwL3N2ZyIgeG1sbnM9Imh0dHA6Ly93d3cudzMub3JnLzIwMDAvc3ZnIiB4bWxuczpzb2RpcG9kaT0iaHR0cDovL3NvZGlwb2RpLnNvdXJjZWZvcmdlLm5ldC9EVEQvc29kaXBvZGktMC5kdGQiIHhtbG5zOmlua3NjYXBlPSJodHRwOi8vd3d3Lmlua3NjYXBlLm9yZy9uYW1lc3BhY2VzL2lua3NjYXBlIiB2ZXJzaW9uPSIxLjEiIGlkPSJMYXllcl8xIiB4PSIwcHgiIHk9IjBweCIgd2lkdGg9IjUwcHgiIGhlaWdodD0iNTBweCIgdmlld0JveD0iMCAwIDUwIDUwIiBlbmFibGUtYmFja2dyb3VuZD0ibmV3IDAgMCA1MCA1MCIgeG1sOnNwYWNlPSJwcmVzZXJ2ZSIgc29kaXBvZGk6ZG9jbmFtZT0iVk0uc3ZnIiBpbmtzY2FwZTp2ZXJzaW9uPSIwLjkyLjMgKDI0MDU1NDYsIDIwMTgtMDMtMTEpIj48bWV0YWRhdGEgaWQ9Im1ldGFkYXRhMTY1MiI+PHJkZjpSREY+PGNjOldvcmsgcmRmOmFib3V0PSIiPjxkYzpmb3JtYXQ+aW1hZ2Uvc3ZnK3htbDwvZGM6Zm9ybWF0PjxkYzp0eXBlIHJkZjpyZXNvdXJjZT0iaHR0cDovL3B1cmwub3JnL2RjL2RjbWl0eXBlL1N0aWxsSW1hZ2UiLz48ZGM6dGl0bGUvPjwvY2M6V29yaz48L3JkZjpSREY+PC9tZXRhZGF0YT48ZGVmcyBpZD0iZGVmczE2NTAiLz48c29kaXBvZGk6bmFtZWR2aWV3IHBhZ2Vjb2xvcj0iI2ZmZmZmZiIgYm9yZGVyY29sb3I9IiM2NjY2NjYiIGJvcmRlcm9wYWNpdHk9IjEiIG9iamVjdHRvbGVyYW5jZT0iMTAiIGdyaWR0b2xlcmFuY2U9IjEwIiBndWlkZXRvbGVyYW5jZT0iMTAiIGlua3NjYXBlOnBhZ2VvcGFjaXR5PSIwIiBpbmtzY2FwZTpwYWdlc2hhZG93PSIyIiBpbmtzY2FwZTp3aW5kb3ctd2lkdGg9IjY0MCIgaW5rc2NhcGU6d2luZG93LWhlaWdodD0iNDgwIiBpZD0ibmFtZWR2aWV3MTY0OCIgc2hvd2dyaWQ9ImZhbHNlIiBpbmtzY2FwZTp6b29tPSI2LjI2IiBpbmtzY2FwZTpjeD0iMjUiIGlua3NjYXBlOmN5PSIyNSIgaW5rc2NhcGU6d2luZG93LXg9IjAiIGlua3NjYXBlOndpbmRvdy15PSIwIiBpbmtzY2FwZTp3aW5kb3ctbWF4aW1pemVkPSIxIiBpbmtzY2FwZTpjdXJyZW50LWxheWVyPSJMYXllcl8xIi8+JiN4YTs8cGF0aCBmaWxsPSIjN0E3QTdBIiBkPSJNMzMsMzhoLTEuMjA3SDE5Ljg5MmgtMC42MjFDMjAuOTIsNDMuOTk5LDE4LjcwNSw0NC44NTksOSw0NC44NTlWNDhoMTIuMzQyaDkuMDExSDQydi0zLjE0MSAgYy05LjcwNSwwLTEwLjY1Ni0wLjg1Ny05LjAwNS02Ljg1OSIgaWQ9InBhdGgxNjI5Ii8+JiN4YTs8cGF0aCBmaWxsPSIjQTBBMUEyIiBkPSJNNDYuOTgsMkgyLjcxOUMxLjIxNSwyLDAuMDAyLDMuMzQ1LDAuMDAyLDQuODQ3djMxLjMyOWMwLDEuNDkzLDEuMjEzLDIuODIzLDIuNzE3LDIuODIzSDQ2Ljk4ICBjMS41MDEsMCwzLjAyMS0xLjMzLDMuMDIxLTIuODIzVjQuODQ3QzUwLjAwMSwzLjM0MSw0OC40ODEsMiw0Ni45OCwyIiBpZD0icGF0aDE2MzEiLz4mI3hhOzxwYXRoIG9wYWNpdHk9IjAuMiIgZmlsbD0iI0ZGRkZGRiIgZW5hYmxlLWJhY2tncm91bmQ9Im5ldyAgICAiIGQ9Ik00Ny4wMTEsMi4wMDNjLTAuMDExLDAtMC4wMjEtMC4wMDItMC4wMzEtMC4wMDJIMi43MTggIGMtMS41MDQsMC0yLjcxNywxLjM0NC0yLjcxNywyLjg0N3YzMS4zMjhDMC4wMDEsMzcuNjcsMS4yMTQsMzksMi43MTgsMzloMS4wNTNMNDcuMDExLDIuMDAzeiIgaWQ9InBhdGgxNjMzIi8+JiN4YTs8cG9seWdvbiBmaWxsPSIjNTlCNEQ5IiBwb2ludHM9IjQ2LDYgNDYsMzUgNCwzNSA0LDYgIiBpZD0icG9seWdvbjE2MzUiLz4mI3hhOzxyZWN0IHg9IjkiIHk9IjQ1IiBmaWxsPSIjQTBBMUEyIiB3aWR0aD0iMzMiIGhlaWdodD0iMyIgaWQ9InJlY3QxNjM3Ii8+JiN4YTs8cGF0aCBmaWxsPSIjQjhENDMyIiBkPSJNMjUuNTE4LDQuMDk1YzAsMC4zOTItMC4zMTgsMC43MS0wLjcxLDAuNzFjLTAuMzkzLDAtMC43MDktMC4zMTgtMC43MDktMC43MWMwLTAuMzkzLDAuMzE2LTAuNzEsMC43MDktMC43MSAgQzI1LjIsMy4zODUsMjUuNTE4LDMuNzAyLDI1LjUxOCw0LjA5NSIgaWQ9InBhdGgxNjM5Ii8+JiN4YTs8cGF0aCBmaWxsPSIjRkZGRkZGIiBkPSJNMjUuMDI4LDE5LjM5NGMtMC4wNDUsMC0wLjA5MS0wLjAxNC0wLjEzNC0wLjAzOGwtOC44MDQtNS4wODJjLTAuMDgxLTAuMDQ4LTAuMTMyLTAuMTM3LTAuMTMyLTAuMjMxICBjMC0wLjA5NSwwLjA1MS0wLjE4MywwLjEzMi0wLjIzbDguNzUxLTUuMDQ5YzAuMDgyLTAuMDQ2LDAuMTgyLTAuMDQ2LDAuMjYzLDBsOC44MDcsNS4wODRjMC4wODIsMC4wNDcsMC4xMzEsMC4xMzUsMC4xMzEsMC4yMyAgYzAsMC4wOTYtMC4wNDksMC4xODMtMC4xMzEsMC4yM2wtOC43NDgsNS4wNDhDMjUuMTIsMTkuMzgsMjUuMDc2LDE5LjM5NCwyNS4wMjgsMTkuMzk0IiBpZD0icGF0aDE2NDEiLz4mI3hhOzxwYXRoIG9wYWNpdHk9IjAuNyIgZmlsbD0iI0ZGRkZGRiIgZW5hYmxlLWJhY2tncm91bmQ9Im5ldyAgICAiIGQ9Ik0yMy43NjMsMzEuNzQ2Yy0wLjA1LDAtMC4wOTUtMC4wMTItMC4xMzQtMC4wMzZsLTguNzc4LTUuMDY2ICBjLTAuMDg1LTAuMDQ3LTAuMTM2LTAuMTMzLTAuMTM2LTAuMjMxVjE2LjI0N2MwLTAuMDk2LDAuMDUxLTAuMTgzLDAuMTM2LTAuMjMxYzAuMDgxLTAuMDQ5LDAuMTgxLTAuMDQ5LDAuMjY4LDBsOC43NzcsNS4wNjQgIGMwLjA3OCwwLjA1LDAuMTMsMC4xMzcsMC4xMywwLjIzM3YxMC4xNjZjMCwwLjA5Ny0wLjA1MiwwLjE4My0wLjEzLDAuMjMxQzIzLjg1MiwzMS43MzQsMjMuODA2LDMxLjc0NiwyMy43NjMsMzEuNzQ2IiBpZD0icGF0aDE2NDMiLz4mI3hhOzxwYXRoIG9wYWNpdHk9IjAuNCIgZmlsbD0iI0ZGRkZGRiIgZW5hYmxlLWJhY2tncm91bmQ9Im5ldyAgICAiIGQ9Ik0yNi4yNDgsMzEuNzQ2Yy0wLjA0OCwwLTAuMDkzLTAuMDEyLTAuMTM4LTAuMDM2ICBjLTAuMDc4LTAuMDQ4LTAuMTI5LTAuMTM0LTAuMTI5LTAuMjMxVjIxLjM3N2MwLTAuMDk0LDAuMDUxLTAuMTgyLDAuMTI5LTAuMjMxbDguNzc3LTUuMDY0YzAuMDg0LTAuMDQ4LDAuMTgyLTAuMDQ4LDAuMjY0LDAgIGMwLjA4NCwwLjA0NywwLjEzNSwwLjEzNSwwLjEzNSwwLjIzdjEwLjEwMWMwLDAuMDk4LTAuMDUxLDAuMTg0LTAuMTM1LDAuMjMxbC04Ljc3NCw1LjA2NiAgQzI2LjM0LDMxLjczNCwyNi4yOTQsMzEuNzQ2LDI2LjI0OCwzMS43NDYiIGlkPSJwYXRoMTY0NSIvPiYjeGE7PC9zdmc+" parent="1" vertex="1">
                    <mxGeometry x="-463" y="940" width="50" height="50" as="geometry"/>
                </mxCell>
                <mxCell id="ejB2oqNJLONClBfcNZHo-36" style="edgeStyle=orthogonalEdgeStyle;rounded=0;orthogonalLoop=1;jettySize=auto;html=1;entryX=0;entryY=0.25;entryDx=0;entryDy=0;" parent="1" source="ejB2oqNJLONClBfcNZHo-28" target="ejB2oqNJLONClBfcNZHo-35" edge="1">
                    <mxGeometry relative="1" as="geometry">
                        <mxPoint x="-1476" y="297" as="targetPoint"/>
                    </mxGeometry>
                </mxCell>
                <mxCell id="ejB2oqNJLONClBfcNZHo-41" value="&amp;nbsp; &amp;nbsp; &amp;nbsp; &amp;nbsp; &amp;nbsp; &amp;nbsp;SSO" style="edgeLabel;html=1;align=center;verticalAlign=middle;resizable=0;points=[];" parent="ejB2oqNJLONClBfcNZHo-36" vertex="1" connectable="0">
                    <mxGeometry x="0.2673" y="1" relative="1" as="geometry">
                        <mxPoint as="offset"/>
                    </mxGeometry>
                </mxCell>
                <mxCell id="58" style="edgeStyle=orthogonalEdgeStyle;rounded=0;orthogonalLoop=1;jettySize=auto;html=1;entryX=0;entryY=0.75;entryDx=0;entryDy=0;" parent="1" source="ejB2oqNJLONClBfcNZHo-28" target="ejB2oqNJLONClBfcNZHo-35" edge="1">
                    <mxGeometry relative="1" as="geometry"/>
                </mxCell>
                <mxCell id="59" value="Oauth2" style="edgeLabel;html=1;align=center;verticalAlign=middle;resizable=0;points=[];" parent="58" vertex="1" connectable="0">
                    <mxGeometry x="0.3591" y="2" relative="1" as="geometry">
                        <mxPoint as="offset"/>
                    </mxGeometry>
                </mxCell>
                <mxCell id="ejB2oqNJLONClBfcNZHo-28" value="&lt;br&gt;&lt;br&gt;&lt;br&gt;&lt;br&gt;&lt;br&gt;&lt;br&gt;&lt;br&gt;&lt;br&gt;&lt;br&gt;&lt;br&gt;&lt;br&gt;&lt;br&gt;&lt;br&gt;&lt;br&gt;&lt;br&gt;&lt;br&gt;&lt;br&gt;&lt;br&gt;" style="rounded=1;whiteSpace=wrap;html=1;" parent="1" vertex="1">
                    <mxGeometry x="-1896" y="216" width="243" height="310" as="geometry"/>
                </mxCell>
                <mxCell id="ejB2oqNJLONClBfcNZHo-29" value="Consumers" style="text;html=1;resizable=0;autosize=1;align=center;verticalAlign=middle;points=[];fillColor=none;strokeColor=none;rounded=0;" parent="1" vertex="1">
                    <mxGeometry x="-1824" y="234" width="80" height="20" as="geometry"/>
                </mxCell>
                <mxCell id="ejB2oqNJLONClBfcNZHo-30" value="On prem Apis" style="shape=image;verticalLabelPosition=bottom;verticalAlign=top;imageAspect=0;aspect=fixed;image=data:image/svg+xml,PHN2ZyB4bWxuczpkYz0iaHR0cDovL3B1cmwub3JnL2RjL2VsZW1lbnRzLzEuMS8iIHhtbG5zOmNjPSJodHRwOi8vY3JlYXRpdmVjb21tb25zLm9yZy9ucyMiIHhtbG5zOnJkZj0iaHR0cDovL3d3dy53My5vcmcvMTk5OS8wMi8yMi1yZGYtc3ludGF4LW5zIyIgeG1sbnM6c3ZnPSJodHRwOi8vd3d3LnczLm9yZy8yMDAwL3N2ZyIgeG1sbnM9Imh0dHA6Ly93d3cudzMub3JnLzIwMDAvc3ZnIiB4bWxuczpzb2RpcG9kaT0iaHR0cDovL3NvZGlwb2RpLnNvdXJjZWZvcmdlLm5ldC9EVEQvc29kaXBvZGktMC5kdGQiIHhtbG5zOmlua3NjYXBlPSJodHRwOi8vd3d3Lmlua3NjYXBlLm9yZy9uYW1lc3BhY2VzL2lua3NjYXBlIiB2ZXJzaW9uPSIxLjEiIGlkPSJMYXllcl8xIiB4PSIwcHgiIHk9IjBweCIgd2lkdGg9IjUwcHgiIGhlaWdodD0iNTBweCIgdmlld0JveD0iMCAwIDUwIDUwIiBlbmFibGUtYmFja2dyb3VuZD0ibmV3IDAgMCA1MCA1MCIgeG1sOnNwYWNlPSJwcmVzZXJ2ZSIgc29kaXBvZGk6ZG9jbmFtZT0iVk0uc3ZnIiBpbmtzY2FwZTp2ZXJzaW9uPSIwLjkyLjMgKDI0MDU1NDYsIDIwMTgtMDMtMTEpIj48bWV0YWRhdGEgaWQ9Im1ldGFkYXRhMTY1MiI+PHJkZjpSREY+PGNjOldvcmsgcmRmOmFib3V0PSIiPjxkYzpmb3JtYXQ+aW1hZ2Uvc3ZnK3htbDwvZGM6Zm9ybWF0PjxkYzp0eXBlIHJkZjpyZXNvdXJjZT0iaHR0cDovL3B1cmwub3JnL2RjL2RjbWl0eXBlL1N0aWxsSW1hZ2UiLz48ZGM6dGl0bGUvPjwvY2M6V29yaz48L3JkZjpSREY+PC9tZXRhZGF0YT48ZGVmcyBpZD0iZGVmczE2NTAiLz48c29kaXBvZGk6bmFtZWR2aWV3IHBhZ2Vjb2xvcj0iI2ZmZmZmZiIgYm9yZGVyY29sb3I9IiM2NjY2NjYiIGJvcmRlcm9wYWNpdHk9IjEiIG9iamVjdHRvbGVyYW5jZT0iMTAiIGdyaWR0b2xlcmFuY2U9IjEwIiBndWlkZXRvbGVyYW5jZT0iMTAiIGlua3NjYXBlOnBhZ2VvcGFjaXR5PSIwIiBpbmtzY2FwZTpwYWdlc2hhZG93PSIyIiBpbmtzY2FwZTp3aW5kb3ctd2lkdGg9IjY0MCIgaW5rc2NhcGU6d2luZG93LWhlaWdodD0iNDgwIiBpZD0ibmFtZWR2aWV3MTY0OCIgc2hvd2dyaWQ9ImZhbHNlIiBpbmtzY2FwZTp6b29tPSI2LjI2IiBpbmtzY2FwZTpjeD0iMjUiIGlua3NjYXBlOmN5PSIyNSIgaW5rc2NhcGU6d2luZG93LXg9IjAiIGlua3NjYXBlOndpbmRvdy15PSIwIiBpbmtzY2FwZTp3aW5kb3ctbWF4aW1pemVkPSIxIiBpbmtzY2FwZTpjdXJyZW50LWxheWVyPSJMYXllcl8xIi8+JiN4YTs8cGF0aCBmaWxsPSIjN0E3QTdBIiBkPSJNMzMsMzhoLTEuMjA3SDE5Ljg5MmgtMC42MjFDMjAuOTIsNDMuOTk5LDE4LjcwNSw0NC44NTksOSw0NC44NTlWNDhoMTIuMzQyaDkuMDExSDQydi0zLjE0MSAgYy05LjcwNSwwLTEwLjY1Ni0wLjg1Ny05LjAwNS02Ljg1OSIgaWQ9InBhdGgxNjI5Ii8+JiN4YTs8cGF0aCBmaWxsPSIjQTBBMUEyIiBkPSJNNDYuOTgsMkgyLjcxOUMxLjIxNSwyLDAuMDAyLDMuMzQ1LDAuMDAyLDQuODQ3djMxLjMyOWMwLDEuNDkzLDEuMjEzLDIuODIzLDIuNzE3LDIuODIzSDQ2Ljk4ICBjMS41MDEsMCwzLjAyMS0xLjMzLDMuMDIxLTIuODIzVjQuODQ3QzUwLjAwMSwzLjM0MSw0OC40ODEsMiw0Ni45OCwyIiBpZD0icGF0aDE2MzEiLz4mI3hhOzxwYXRoIG9wYWNpdHk9IjAuMiIgZmlsbD0iI0ZGRkZGRiIgZW5hYmxlLWJhY2tncm91bmQ9Im5ldyAgICAiIGQ9Ik00Ny4wMTEsMi4wMDNjLTAuMDExLDAtMC4wMjEtMC4wMDItMC4wMzEtMC4wMDJIMi43MTggIGMtMS41MDQsMC0yLjcxNywxLjM0NC0yLjcxNywyLjg0N3YzMS4zMjhDMC4wMDEsMzcuNjcsMS4yMTQsMzksMi43MTgsMzloMS4wNTNMNDcuMDExLDIuMDAzeiIgaWQ9InBhdGgxNjMzIi8+JiN4YTs8cG9seWdvbiBmaWxsPSIjNTlCNEQ5IiBwb2ludHM9IjQ2LDYgNDYsMzUgNCwzNSA0LDYgIiBpZD0icG9seWdvbjE2MzUiLz4mI3hhOzxyZWN0IHg9IjkiIHk9IjQ1IiBmaWxsPSIjQTBBMUEyIiB3aWR0aD0iMzMiIGhlaWdodD0iMyIgaWQ9InJlY3QxNjM3Ii8+JiN4YTs8cGF0aCBmaWxsPSIjQjhENDMyIiBkPSJNMjUuNTE4LDQuMDk1YzAsMC4zOTItMC4zMTgsMC43MS0wLjcxLDAuNzFjLTAuMzkzLDAtMC43MDktMC4zMTgtMC43MDktMC43MWMwLTAuMzkzLDAuMzE2LTAuNzEsMC43MDktMC43MSAgQzI1LjIsMy4zODUsMjUuNTE4LDMuNzAyLDI1LjUxOCw0LjA5NSIgaWQ9InBhdGgxNjM5Ii8+JiN4YTs8cGF0aCBmaWxsPSIjRkZGRkZGIiBkPSJNMjUuMDI4LDE5LjM5NGMtMC4wNDUsMC0wLjA5MS0wLjAxNC0wLjEzNC0wLjAzOGwtOC44MDQtNS4wODJjLTAuMDgxLTAuMDQ4LTAuMTMyLTAuMTM3LTAuMTMyLTAuMjMxICBjMC0wLjA5NSwwLjA1MS0wLjE4MywwLjEzMi0wLjIzbDguNzUxLTUuMDQ5YzAuMDgyLTAuMDQ2LDAuMTgyLTAuMDQ2LDAuMjYzLDBsOC44MDcsNS4wODRjMC4wODIsMC4wNDcsMC4xMzEsMC4xMzUsMC4xMzEsMC4yMyAgYzAsMC4wOTYtMC4wNDksMC4xODMtMC4xMzEsMC4yM2wtOC43NDgsNS4wNDhDMjUuMTIsMTkuMzgsMjUuMDc2LDE5LjM5NCwyNS4wMjgsMTkuMzk0IiBpZD0icGF0aDE2NDEiLz4mI3hhOzxwYXRoIG9wYWNpdHk9IjAuNyIgZmlsbD0iI0ZGRkZGRiIgZW5hYmxlLWJhY2tncm91bmQ9Im5ldyAgICAiIGQ9Ik0yMy43NjMsMzEuNzQ2Yy0wLjA1LDAtMC4wOTUtMC4wMTItMC4xMzQtMC4wMzZsLTguNzc4LTUuMDY2ICBjLTAuMDg1LTAuMDQ3LTAuMTM2LTAuMTMzLTAuMTM2LTAuMjMxVjE2LjI0N2MwLTAuMDk2LDAuMDUxLTAuMTgzLDAuMTM2LTAuMjMxYzAuMDgxLTAuMDQ5LDAuMTgxLTAuMDQ5LDAuMjY4LDBsOC43NzcsNS4wNjQgIGMwLjA3OCwwLjA1LDAuMTMsMC4xMzcsMC4xMywwLjIzM3YxMC4xNjZjMCwwLjA5Ny0wLjA1MiwwLjE4My0wLjEzLDAuMjMxQzIzLjg1MiwzMS43MzQsMjMuODA2LDMxLjc0NiwyMy43NjMsMzEuNzQ2IiBpZD0icGF0aDE2NDMiLz4mI3hhOzxwYXRoIG9wYWNpdHk9IjAuNCIgZmlsbD0iI0ZGRkZGRiIgZW5hYmxlLWJhY2tncm91bmQ9Im5ldyAgICAiIGQ9Ik0yNi4yNDgsMzEuNzQ2Yy0wLjA0OCwwLTAuMDkzLTAuMDEyLTAuMTM4LTAuMDM2ICBjLTAuMDc4LTAuMDQ4LTAuMTI5LTAuMTM0LTAuMTI5LTAuMjMxVjIxLjM3N2MwLTAuMDk0LDAuMDUxLTAuMTgyLDAuMTI5LTAuMjMxbDguNzc3LTUuMDY0YzAuMDg0LTAuMDQ4LDAuMTgyLTAuMDQ4LDAuMjY0LDAgIGMwLjA4NCwwLjA0NywwLjEzNSwwLjEzNSwwLjEzNSwwLjIzdjEwLjEwMWMwLDAuMDk4LTAuMDUxLDAuMTg0LTAuMTM1LDAuMjMxbC04Ljc3NCw1LjA2NiAgQzI2LjM0LDMxLjczNCwyNi4yOTQsMzEuNzQ2LDI2LjI0OCwzMS43NDYiIGlkPSJwYXRoMTY0NSIvPiYjeGE7PC9zdmc+" parent="1" vertex="1">
                    <mxGeometry x="-368" y="940" width="50" height="50" as="geometry"/>
                </mxCell>
                <mxCell id="ejB2oqNJLONClBfcNZHo-31" value="&#10;Internal developers" style="shape=image;verticalLabelPosition=bottom;verticalAlign=top;imageAspect=0;aspect=fixed;image=data:image/svg+xml,PHN2ZyB4bWxuczpkYz0iaHR0cDovL3B1cmwub3JnL2RjL2VsZW1lbnRzLzEuMS8iIHhtbG5zOmNjPSJodHRwOi8vY3JlYXRpdmVjb21tb25zLm9yZy9ucyMiIHhtbG5zOnJkZj0iaHR0cDovL3d3dy53My5vcmcvMTk5OS8wMi8yMi1yZGYtc3ludGF4LW5zIyIgeG1sbnM6c3ZnPSJodHRwOi8vd3d3LnczLm9yZy8yMDAwL3N2ZyIgeG1sbnM9Imh0dHA6Ly93d3cudzMub3JnLzIwMDAvc3ZnIiB4bWxuczpzb2RpcG9kaT0iaHR0cDovL3NvZGlwb2RpLnNvdXJjZWZvcmdlLm5ldC9EVEQvc29kaXBvZGktMC5kdGQiIHhtbG5zOmlua3NjYXBlPSJodHRwOi8vd3d3Lmlua3NjYXBlLm9yZy9uYW1lc3BhY2VzL2lua3NjYXBlIiB2aWV3Qm94PSIwIDAgNTAgNTAiIHZlcnNpb249IjEuMSIgaWQ9InN2ZzgzMiIgc29kaXBvZGk6ZG9jbmFtZT0iU29mdHdhcmUgYXMgYSBTZXJ2aWNlIChTYWFTKS5zdmciIGlua3NjYXBlOnZlcnNpb249IjAuOTIuMyAoMjQwNTU0NiwgMjAxOC0wMy0xMSkiPiYjeGE7ICA8bWV0YWRhdGEgaWQ9Im1ldGFkYXRhODM4Ij4mI3hhOyAgICA8cmRmOlJERj4mI3hhOyAgICAgIDxjYzpXb3JrIHJkZjphYm91dD0iIj4mI3hhOyAgICAgICAgPGRjOmZvcm1hdD5pbWFnZS9zdmcreG1sPC9kYzpmb3JtYXQ+JiN4YTsgICAgICAgIDxkYzp0eXBlIHJkZjpyZXNvdXJjZT0iaHR0cDovL3B1cmwub3JnL2RjL2RjbWl0eXBlL1N0aWxsSW1hZ2UiLz4mI3hhOyAgICAgICAgPGRjOnRpdGxlLz4mI3hhOyAgICAgIDwvY2M6V29yaz4mI3hhOyAgICA8L3JkZjpSREY+JiN4YTsgIDwvbWV0YWRhdGE+JiN4YTsgIDxkZWZzIGlkPSJkZWZzODM2Ii8+JiN4YTsgIDxzb2RpcG9kaTpuYW1lZHZpZXcgcGFnZWNvbG9yPSIjZmZmZmZmIiBib3JkZXJjb2xvcj0iIzY2NjY2NiIgYm9yZGVyb3BhY2l0eT0iMSIgb2JqZWN0dG9sZXJhbmNlPSIxMCIgZ3JpZHRvbGVyYW5jZT0iMTAiIGd1aWRldG9sZXJhbmNlPSIxMCIgaW5rc2NhcGU6cGFnZW9wYWNpdHk9IjAiIGlua3NjYXBlOnBhZ2VzaGFkb3c9IjIiIGlua3NjYXBlOndpbmRvdy13aWR0aD0iNjQwIiBpbmtzY2FwZTp3aW5kb3ctaGVpZ2h0PSI0ODAiIGlkPSJuYW1lZHZpZXc4MzQiIHNob3dncmlkPSJmYWxzZSIgaW5rc2NhcGU6em9vbT0iNi4yNiIgaW5rc2NhcGU6Y3g9IjI1IiBpbmtzY2FwZTpjeT0iMjUiIGlua3NjYXBlOndpbmRvdy14PSIwIiBpbmtzY2FwZTp3aW5kb3cteT0iMCIgaW5rc2NhcGU6d2luZG93LW1heGltaXplZD0iMSIgaW5rc2NhcGU6Y3VycmVudC1sYXllcj0ic3ZnODMyIi8+JiN4YTsgIDxwYXRoIGQ9Ik00MS4zNjQgMTUuMjA1Yy4wMjctLjM0My4wNTMtLjY4Ni4wNTMtMS4wMzYgMC03LjI0NS01Ljk3My0xMy4xMTktMTMuMzQyLTEzLjExOS01Ljk0OCAwLTEwLjk4MiAzLjgyOS0xMi43MDQgOS4xMTVhMTIuMTIxIDEyLjEyMSAwIDAgMC0yLjIyMi0uMjI0Yy02LjYgMC0xMS45NSA1LjE1MS0xMS45NSAxMS41MDQgMCA2LjM1NCA1LjM1IDExLjUwNCAxMS45NSAxMS41MDRoMjYuNTU2YzUuMTMzIDAgOS4yOTQtNC4wMDYgOS4yOTQtOC45NDguMDAxLTQuMzk1LTMuMjk0LTguMDQyLTcuNjM1LTguNzk2eiIgY2xhc3M9Im1zcG9ydGFsZngtc3ZnLWMxNSIgZmlsbD0iIzU5YjRkOSIgaWQ9InBhdGg4MjAiLz4mI3hhOyAgPHBhdGggb3BhY2l0eT0iLjQiIGQ9Ik0xNSAzM1YxNy4wNzhjMC0xLjE0NS45MzMtMi4wNzggMi4wNzgtMi4wNzhoMTcuODQ0YzEuMTQ1IDAgMi4wNzguOTMzIDIuMDc4IDIuMDc4VjMzSDE1eiIgY2xhc3M9Im1zcG9ydGFsZngtc3ZnLWMwMSIgZmlsbD0iI2ZmZiIgaWQ9InBhdGg4MjIiLz4mI3hhOyAgPHBhdGggZD0iTTM0LjkyMiAxNkgxNy4wNzhjLS41OTUgMC0xLjA3OC40ODMtMS4wNzggMS4wNzh2MzAuODQzYzAgLjU5Ni40ODMgMS4wNzkgMS4wNzggMS4wNzloMTcuODQzYy41OTYgMCAxLjA3OS0uNDgzIDEuMDc5LTEuMDc4VjE3LjA3OGMwLS41OTUtLjQ4My0xLjA3OC0xLjA3OC0xLjA3OHoiIGNsYXNzPSJtc3BvcnRhbGZ4LXN2Zy1jMDQiIGZpbGw9IiM3YTdhN2EiIGlkPSJwYXRoODI0Ii8+JiN4YTsgIDxwYXRoIG9wYWNpdHk9Ii40IiBkPSJNMzQuOTIyIDE2SDI4TDE2IDQzdjQuOTIyYzAgLjU5NS40ODMgMS4wNzggMS4wNzggMS4wNzhoMTcuODQzYy41OTYgMCAxLjA3OS0uNDgzIDEuMDc5LTEuMDc4VjE3LjA3OGMwLS41OTUtLjQ4My0xLjA3OC0xLjA3OC0xLjA3OHoiIGNsYXNzPSJtc3BvcnRhbGZ4LXN2Zy1jMDYiIGZpbGw9IiMxZTFlMWUiIGlkPSJwYXRoODI2Ii8+JiN4YTsgIDxwYXRoIGQ9Ik0xOCAxOWg0djVoLTR6bTYgMGg0djVoLTR6bTYgMGg0djVoLTR6bS0xMiA4aDR2NWgtNHptNiAwaDR2NWgtNHptNiAwaDR2NWgtNHptLTEyIDhoNHY1aC00em02IDBoNHY1aC00em0wIDhoNHY2aC00em02LThoNHY1aC00eiIgY2xhc3M9Im1zcG9ydGFsZngtc3ZnLWMwMSIgZmlsbD0iI2ZmZiIgaWQ9InBhdGg4MjgiLz4mI3hhOyAgPHBhdGggZD0iTTE4IDE5aDR2NWgtNHptNiAwaDR2NWgtNHptNiAwaDR2NWgtNHptLTEyIDhoNHY1aC00em02IDBoNHY1aC00em02IDBoNHY1aC00em0tMTIgOGg0djVoLTR6bTYgMGg0djVoLTR6bTAgOGg0djZoLTR6bTYtOGg0djVoLTR6IiBvcGFjaXR5PSIuMTUiIGNsYXNzPSJtc3BvcnRhbGZ4LXN2Zy1jMTUiIGZpbGw9IiM1OWI0ZDkiIGlkPSJwYXRoODMwIi8+JiN4YTs8L3N2Zz4=" parent="1" vertex="1">
                    <mxGeometry x="-1803" y="293" width="50" height="50" as="geometry"/>
                </mxCell>
                <mxCell id="ejB2oqNJLONClBfcNZHo-32" value="Third party apps" style="shape=image;verticalLabelPosition=bottom;verticalAlign=top;imageAspect=0;aspect=fixed;image=data:image/svg+xml,PHN2ZyB4bWxuczpkYz0iaHR0cDovL3B1cmwub3JnL2RjL2VsZW1lbnRzLzEuMS8iIHhtbG5zOmNjPSJodHRwOi8vY3JlYXRpdmVjb21tb25zLm9yZy9ucyMiIHhtbG5zOnJkZj0iaHR0cDovL3d3dy53My5vcmcvMTk5OS8wMi8yMi1yZGYtc3ludGF4LW5zIyIgeG1sbnM6c3ZnPSJodHRwOi8vd3d3LnczLm9yZy8yMDAwL3N2ZyIgeG1sbnM9Imh0dHA6Ly93d3cudzMub3JnLzIwMDAvc3ZnIiB4bWxuczpzb2RpcG9kaT0iaHR0cDovL3NvZGlwb2RpLnNvdXJjZWZvcmdlLm5ldC9EVEQvc29kaXBvZGktMC5kdGQiIHhtbG5zOmlua3NjYXBlPSJodHRwOi8vd3d3Lmlua3NjYXBlLm9yZy9uYW1lc3BhY2VzL2lua3NjYXBlIiB2aWV3Qm94PSIwIDAgNTAgNTAiIHZlcnNpb249IjEuMSIgaWQ9InN2ZzgzMiIgc29kaXBvZGk6ZG9jbmFtZT0iU29mdHdhcmUgYXMgYSBTZXJ2aWNlIChTYWFTKS5zdmciIGlua3NjYXBlOnZlcnNpb249IjAuOTIuMyAoMjQwNTU0NiwgMjAxOC0wMy0xMSkiPiYjeGE7ICA8bWV0YWRhdGEgaWQ9Im1ldGFkYXRhODM4Ij4mI3hhOyAgICA8cmRmOlJERj4mI3hhOyAgICAgIDxjYzpXb3JrIHJkZjphYm91dD0iIj4mI3hhOyAgICAgICAgPGRjOmZvcm1hdD5pbWFnZS9zdmcreG1sPC9kYzpmb3JtYXQ+JiN4YTsgICAgICAgIDxkYzp0eXBlIHJkZjpyZXNvdXJjZT0iaHR0cDovL3B1cmwub3JnL2RjL2RjbWl0eXBlL1N0aWxsSW1hZ2UiLz4mI3hhOyAgICAgICAgPGRjOnRpdGxlLz4mI3hhOyAgICAgIDwvY2M6V29yaz4mI3hhOyAgICA8L3JkZjpSREY+JiN4YTsgIDwvbWV0YWRhdGE+JiN4YTsgIDxkZWZzIGlkPSJkZWZzODM2Ii8+JiN4YTsgIDxzb2RpcG9kaTpuYW1lZHZpZXcgcGFnZWNvbG9yPSIjZmZmZmZmIiBib3JkZXJjb2xvcj0iIzY2NjY2NiIgYm9yZGVyb3BhY2l0eT0iMSIgb2JqZWN0dG9sZXJhbmNlPSIxMCIgZ3JpZHRvbGVyYW5jZT0iMTAiIGd1aWRldG9sZXJhbmNlPSIxMCIgaW5rc2NhcGU6cGFnZW9wYWNpdHk9IjAiIGlua3NjYXBlOnBhZ2VzaGFkb3c9IjIiIGlua3NjYXBlOndpbmRvdy13aWR0aD0iNjQwIiBpbmtzY2FwZTp3aW5kb3ctaGVpZ2h0PSI0ODAiIGlkPSJuYW1lZHZpZXc4MzQiIHNob3dncmlkPSJmYWxzZSIgaW5rc2NhcGU6em9vbT0iNi4yNiIgaW5rc2NhcGU6Y3g9IjI1IiBpbmtzY2FwZTpjeT0iMjUiIGlua3NjYXBlOndpbmRvdy14PSIwIiBpbmtzY2FwZTp3aW5kb3cteT0iMCIgaW5rc2NhcGU6d2luZG93LW1heGltaXplZD0iMSIgaW5rc2NhcGU6Y3VycmVudC1sYXllcj0ic3ZnODMyIi8+JiN4YTsgIDxwYXRoIGQ9Ik00MS4zNjQgMTUuMjA1Yy4wMjctLjM0My4wNTMtLjY4Ni4wNTMtMS4wMzYgMC03LjI0NS01Ljk3My0xMy4xMTktMTMuMzQyLTEzLjExOS01Ljk0OCAwLTEwLjk4MiAzLjgyOS0xMi43MDQgOS4xMTVhMTIuMTIxIDEyLjEyMSAwIDAgMC0yLjIyMi0uMjI0Yy02LjYgMC0xMS45NSA1LjE1MS0xMS45NSAxMS41MDQgMCA2LjM1NCA1LjM1IDExLjUwNCAxMS45NSAxMS41MDRoMjYuNTU2YzUuMTMzIDAgOS4yOTQtNC4wMDYgOS4yOTQtOC45NDguMDAxLTQuMzk1LTMuMjk0LTguMDQyLTcuNjM1LTguNzk2eiIgY2xhc3M9Im1zcG9ydGFsZngtc3ZnLWMxNSIgZmlsbD0iIzU5YjRkOSIgaWQ9InBhdGg4MjAiLz4mI3hhOyAgPHBhdGggb3BhY2l0eT0iLjQiIGQ9Ik0xNSAzM1YxNy4wNzhjMC0xLjE0NS45MzMtMi4wNzggMi4wNzgtMi4wNzhoMTcuODQ0YzEuMTQ1IDAgMi4wNzguOTMzIDIuMDc4IDIuMDc4VjMzSDE1eiIgY2xhc3M9Im1zcG9ydGFsZngtc3ZnLWMwMSIgZmlsbD0iI2ZmZiIgaWQ9InBhdGg4MjIiLz4mI3hhOyAgPHBhdGggZD0iTTM0LjkyMiAxNkgxNy4wNzhjLS41OTUgMC0xLjA3OC40ODMtMS4wNzggMS4wNzh2MzAuODQzYzAgLjU5Ni40ODMgMS4wNzkgMS4wNzggMS4wNzloMTcuODQzYy41OTYgMCAxLjA3OS0uNDgzIDEuMDc5LTEuMDc4VjE3LjA3OGMwLS41OTUtLjQ4My0xLjA3OC0xLjA3OC0xLjA3OHoiIGNsYXNzPSJtc3BvcnRhbGZ4LXN2Zy1jMDQiIGZpbGw9IiM3YTdhN2EiIGlkPSJwYXRoODI0Ii8+JiN4YTsgIDxwYXRoIG9wYWNpdHk9Ii40IiBkPSJNMzQuOTIyIDE2SDI4TDE2IDQzdjQuOTIyYzAgLjU5NS40ODMgMS4wNzggMS4wNzggMS4wNzhoMTcuODQzYy41OTYgMCAxLjA3OS0uNDgzIDEuMDc5LTEuMDc4VjE3LjA3OGMwLS41OTUtLjQ4My0xLjA3OC0xLjA3OC0xLjA3OHoiIGNsYXNzPSJtc3BvcnRhbGZ4LXN2Zy1jMDYiIGZpbGw9IiMxZTFlMWUiIGlkPSJwYXRoODI2Ii8+JiN4YTsgIDxwYXRoIGQ9Ik0xOCAxOWg0djVoLTR6bTYgMGg0djVoLTR6bTYgMGg0djVoLTR6bS0xMiA4aDR2NWgtNHptNiAwaDR2NWgtNHptNiAwaDR2NWgtNHptLTEyIDhoNHY1aC00em02IDBoNHY1aC00em0wIDhoNHY2aC00em02LThoNHY1aC00eiIgY2xhc3M9Im1zcG9ydGFsZngtc3ZnLWMwMSIgZmlsbD0iI2ZmZiIgaWQ9InBhdGg4MjgiLz4mI3hhOyAgPHBhdGggZD0iTTE4IDE5aDR2NWgtNHptNiAwaDR2NWgtNHptNiAwaDR2NWgtNHptLTEyIDhoNHY1aC00em02IDBoNHY1aC00em02IDBoNHY1aC00em0tMTIgOGg0djVoLTR6bTYgMGg0djVoLTR6bTAgOGg0djZoLTR6bTYtOGg0djVoLTR6IiBvcGFjaXR5PSIuMTUiIGNsYXNzPSJtc3BvcnRhbGZ4LXN2Zy1jMTUiIGZpbGw9IiM1OWI0ZDkiIGlkPSJwYXRoODMwIi8+JiN4YTs8L3N2Zz4=" parent="1" vertex="1">
                    <mxGeometry x="-1803" y="391" width="50" height="50" as="geometry"/>
                </mxCell>
                <mxCell id="57" style="edgeStyle=orthogonalEdgeStyle;rounded=0;orthogonalLoop=1;jettySize=auto;html=1;exitX=1;exitY=0.25;exitDx=0;exitDy=0;" parent="1" source="ejB2oqNJLONClBfcNZHo-35" target="55" edge="1">
                    <mxGeometry relative="1" as="geometry"/>
                </mxCell>
                <mxCell id="60" style="edgeStyle=orthogonalEdgeStyle;rounded=0;orthogonalLoop=1;jettySize=auto;html=1;exitX=1;exitY=0.75;exitDx=0;exitDy=0;entryX=0;entryY=0.5;entryDx=0;entryDy=0;" parent="1" source="ejB2oqNJLONClBfcNZHo-35" target="18" edge="1">
                    <mxGeometry relative="1" as="geometry"/>
                </mxCell>
                <mxCell id="ejB2oqNJLONClBfcNZHo-35" value="Microsoft Entra ID&#10;tenant" style="shape=image;verticalLabelPosition=bottom;verticalAlign=top;imageAspect=0;aspect=fixed;image=data:image/svg+xml,PHN2ZyB4bWxuczpkYz0iaHR0cDovL3B1cmwub3JnL2RjL2VsZW1lbnRzLzEuMS8iIHhtbG5zOmNjPSJodHRwOi8vY3JlYXRpdmVjb21tb25zLm9yZy9ucyMiIHhtbG5zOnJkZj0iaHR0cDovL3d3dy53My5vcmcvMTk5OS8wMi8yMi1yZGYtc3ludGF4LW5zIyIgeG1sbnM6c3ZnPSJodHRwOi8vd3d3LnczLm9yZy8yMDAwL3N2ZyIgeG1sbnM9Imh0dHA6Ly93d3cudzMub3JnLzIwMDAvc3ZnIiB4bWxuczpzb2RpcG9kaT0iaHR0cDovL3NvZGlwb2RpLnNvdXJjZWZvcmdlLm5ldC9EVEQvc29kaXBvZGktMC5kdGQiIHhtbG5zOmlua3NjYXBlPSJodHRwOi8vd3d3Lmlua3NjYXBlLm9yZy9uYW1lc3BhY2VzL2lua3NjYXBlIiB2ZXJzaW9uPSIxLjEiIGlkPSJMYXllcl8xIiB4PSIwcHgiIHk9IjBweCIgd2lkdGg9IjUwcHgiIGhlaWdodD0iNTBweCIgdmlld0JveD0iMCAwIDUwIDUwIiBlbmFibGUtYmFja2dyb3VuZD0ibmV3IDAgMCA1MCA1MCIgeG1sOnNwYWNlPSJwcmVzZXJ2ZSIgc29kaXBvZGk6ZG9jbmFtZT0iQWN0aXZlIERpcmVjdG9yeS5zdmciIGlua3NjYXBlOnZlcnNpb249IjAuOTIuMyAoMjQwNTU0NiwgMjAxOC0wMy0xMSkiPjxtZXRhZGF0YSBpZD0ibWV0YWRhdGEyNSI+PHJkZjpSREY+PGNjOldvcmsgcmRmOmFib3V0PSIiPjxkYzpmb3JtYXQ+aW1hZ2Uvc3ZnK3htbDwvZGM6Zm9ybWF0PjxkYzp0eXBlIHJkZjpyZXNvdXJjZT0iaHR0cDovL3B1cmwub3JnL2RjL2RjbWl0eXBlL1N0aWxsSW1hZ2UiLz48ZGM6dGl0bGUvPjwvY2M6V29yaz48L3JkZjpSREY+PC9tZXRhZGF0YT48ZGVmcyBpZD0iZGVmczIzIi8+PHNvZGlwb2RpOm5hbWVkdmlldyBwYWdlY29sb3I9IiNmZmZmZmYiIGJvcmRlcmNvbG9yPSIjNjY2NjY2IiBib3JkZXJvcGFjaXR5PSIxIiBvYmplY3R0b2xlcmFuY2U9IjEwIiBncmlkdG9sZXJhbmNlPSIxMCIgZ3VpZGV0b2xlcmFuY2U9IjEwIiBpbmtzY2FwZTpwYWdlb3BhY2l0eT0iMCIgaW5rc2NhcGU6cGFnZXNoYWRvdz0iMiIgaW5rc2NhcGU6d2luZG93LXdpZHRoPSI2NDAiIGlua3NjYXBlOndpbmRvdy1oZWlnaHQ9IjQ4MCIgaWQ9Im5hbWVkdmlldzIxIiBzaG93Z3JpZD0iZmFsc2UiIGlua3NjYXBlOnpvb209IjQuNzIiIGlua3NjYXBlOmN4PSIyNSIgaW5rc2NhcGU6Y3k9IjI1IiBpbmtzY2FwZTp3aW5kb3cteD0iMCIgaW5rc2NhcGU6d2luZG93LXk9IjAiIGlua3NjYXBlOndpbmRvdy1tYXhpbWl6ZWQ9IjAiIGlua3NjYXBlOmN1cnJlbnQtbGF5ZXI9IkxheWVyXzEiLz4mI3hhOzxwYXRoIGZpbGw9IiM1OUI0RDkiIGQ9Ik0yNS4wMDEsNTAuMDAxYy0xLjIzMiwwLTIuMzkyLTAuNDgtMy4yNjEtMS4zNTJMMS4zNTEsMjguMjYxQzAuNDkyLDI3LjQwMiwwLDI2LjIxNSwwLDI1ICBjMC0xLjIxNCwwLjQ5Mi0yLjQwMiwxLjM1MS0zLjI2TDIxLjc0LDEuMzUyQzIyLjYxMSwwLjQ4LDIzLjc2OSwwLDI1LjAwMSwwYzEuMjMxLDAsMi4zOSwwLjQ4LDMuMjYxLDEuMzUyTDQ4LjY0OCwyMS43NCAgQzQ5LjUyMSwyMi42MDgsNTAsMjMuNzY3LDUwLDI1YzAsMS4yMzMtMC40NzksMi4zOTItMS4zNTMsMy4yNjNMMjguMjYyLDQ4LjY0OUMyNy4zOTIsNDkuNTIxLDI2LjIzMiw1MC4wMDEsMjUuMDAxLDUwLjAwMSIgaWQ9InBhdGgyIi8+JiN4YTs8cGF0aCBmaWxsPSIjRkZGRkZGIiBkPSJNMzguNjE0LDIxLjA5M2MtMi4xNiwwLTMuOTEsMS43NS0zLjkxLDMuOTA5YzAsMC43OTIsMC4yMzksMS41MjcsMC42NDUsMi4xNDNsLTcuNzQ0LDcuNzQ0ICBjLTAuMjA2LTAuMTQ0LTAuNDI3LTAuMjY0LTAuNjU2LTAuMzczVjE0Ljc1OWMxLjE2Ny0wLjY3NiwxLjk2MS0xLjkyNCwxLjk2MS0zLjM3QzI4LjkxLDkuMjMsMjcuMTYsNy40OCwyNSw3LjQ4ICBjLTIuMTU4LDAtMy45MDgsMS43NS0zLjkwOCwzLjkwOWMwLDEuNDQ2LDAuNzk0LDIuNjk0LDEuOTYsMy4zN3YxOS43NTZjLTAuMjE5LDAuMTA0LTAuNDM0LDAuMjE2LTAuNjMyLDAuMzUzbC03Ljc1My03Ljc1MyAgYzAuMzk0LTAuNjEsMC42MjgtMS4zMzMsMC42MjgtMi4xMTNjMC0yLjE1OS0xLjc1LTMuOTA5LTMuOTA4LTMuOTA5Yy0yLjE2LDAtMy45MSwxLjc1LTMuOTEsMy45MDlzMS43NSwzLjkwOSwzLjkxLDMuOTA5ICBjMC40NDgsMCwwLjg3Mi0wLjA5MSwxLjI3NC0wLjIzbDguMTUsOC4xNWMtMC4yMzQsMC41NDgtMC4zNjQsMS4xNS0wLjM2NCwxLjc4M2MwLDIuNTEzLDIuMDM4LDQuNTUxLDQuNTUxLDQuNTUxICBjMi41MTQsMCw0LjU1MS0yLjAzOCw0LjU1MS00LjU1MWMwLTAuNjIxLTAuMTI2LTEuMjEyLTAuMzUxLTEuNzUxbDguMTczLTguMTcyYzAuMzkyLDAuMTMyLDAuODA0LDAuMjIsMS4yNDEsMC4yMiAgYzIuMTU4LDAsMy45MDgtMS43NSwzLjkwOC0zLjkwOVM0MC43NzEsMjEuMDkzLDM4LjYxNCwyMS4wOTN6IiBpZD0icGF0aDQiLz4mI3hhOzxyZWN0IHg9IjMxLjAwNiIgeT0iOC4yMjYiIHRyYW5zZm9ybT0ibWF0cml4KC0wLjcwNyAwLjcwNzIgLTAuNzA3MiAtMC43MDcgNjguMjA5OSA4Ljg3MTgpIiBvcGFjaXR5PSIwLjUiIGZpbGw9IiNGRkZGRkYiIHdpZHRoPSIyLjUyMyIgaGVpZ2h0PSIyMC42NzYiIGlkPSJyZWN0NiIvPiYjeGE7PHJlY3QgeD0iMTYuNDg3IiB5PSI4LjI0MiIgdHJhbnNmb3JtPSJtYXRyaXgoMC43MDcxIDAuNzA3MSAtMC43MDcxIDAuNzA3MSAxOC4zMzU1IC03LjEwODgpIiBvcGFjaXR5PSIwLjUiIGZpbGw9IiNGRkZGRkYiIHdpZHRoPSIyLjUyNCIgaGVpZ2h0PSIyMC42NzciIGlkPSJyZWN0OCIvPiYjeGE7PHBhdGggZmlsbD0iI0I4RDQzMiIgZD0iTTI3LjY2NSwzOC42MTRjMCwxLjQ5Ni0xLjIxNCwyLjcwOS0yLjcxLDIuNzA5Yy0xLjQ5NywwLTIuNzA5LTEuMjEzLTIuNzA5LTIuNzA5ICBjMC0xLjQ5NiwxLjIxMi0yLjcwOSwyLjcwOS0yLjcwOUMyNi40NSwzNS45MDUsMjcuNjY1LDM3LjExOCwyNy42NjUsMzguNjE0IiBpZD0icGF0aDEwIi8+JiN4YTs8cGF0aCBmaWxsPSIjQjhENDMyIiBkPSJNMjcuMTc0LDExLjM4OWMwLDEuMjAxLTAuOTczLDIuMTc0LTIuMTc0LDIuMTc0Yy0xLjIwMSwwLTIuMTc0LTAuOTczLTIuMTc0LTIuMTc0ICBjMC0xLjIwMSwwLjk3My0yLjE3NCwyLjE3NC0yLjE3NEMyNi4yMDEsOS4yMTUsMjcuMTc0LDEwLjE4OCwyNy4xNzQsMTEuMzg5IiBpZD0icGF0aDEyIi8+JiN4YTs8cGF0aCBmaWxsPSIjQjhENDMyIiBkPSJNMTMuNTYzLDI1LjAwMWMwLDEuMjAxLTAuOTc1LDIuMTc0LTIuMTc0LDIuMTc0Yy0xLjIwMSwwLTIuMTc0LTAuOTczLTIuMTc0LTIuMTc0ICBjMC0xLjIwMSwwLjk3My0yLjE3NCwyLjE3NC0yLjE3NEMxMi41ODgsMjIuODI3LDEzLjU2MywyMy44LDEzLjU2MywyNS4wMDEiIGlkPSJwYXRoMTQiLz4mI3hhOzxwYXRoIGZpbGw9IiNCOEQ0MzIiIGQ9Ik00MC43ODgsMjUuMDAxYzAsMS4yMDEtMC45NzUsMi4xNzQtMi4xNzUsMi4xNzRjLTEuMiwwLTIuMTc0LTAuOTczLTIuMTc0LTIuMTc0ICBjMC0xLjIwMSwwLjk3NC0yLjE3NCwyLjE3NC0yLjE3NEMzOS44MTMsMjIuODI3LDQwLjc4OCwyMy44LDQwLjc4OCwyNS4wMDEiIGlkPSJwYXRoMTYiLz4mI3hhOzxwYXRoIG9wYWNpdHk9IjAuMSIgZmlsbD0iI0ZGRkZGRiIgZD0iTTI4LjI2MiwxLjM1MkMyNy4zOTEsMC40OCwyNi4yMzMsMCwyNS4wMDEsMGMtMS4yMzEsMC0yLjM4OSwwLjQ4LTMuMjYsMS4zNTJMMS4zNTIsMjEuNzQgIEMwLjQ5MiwyMi41OTgsMCwyMy43ODYsMCwyNWMwLDEuMjE1LDAuNDkyLDIuNDAzLDEuMzUyLDMuMjYxbDExLjU0MywxMS41NDRMMzQuNjEsNy42OTlMMjguMjYyLDEuMzUyeiIgaWQ9InBhdGgxOCIvPiYjeGE7PC9zdmc+" parent="1" vertex="1">
                    <mxGeometry x="-1446" y="290" width="50" height="50" as="geometry"/>
                </mxCell>
                <mxCell id="16" value="AKS" style="aspect=fixed;html=1;points=[];align=center;image;fontSize=12;image=img/lib/azure2/compute/Container_Services_Deprecated.svg;" parent="1" vertex="1">
                    <mxGeometry x="-348" y="300" width="68" height="60" as="geometry"/>
                </mxCell>
                <mxCell id="61" style="edgeStyle=orthogonalEdgeStyle;rounded=0;orthogonalLoop=1;jettySize=auto;html=1;entryX=-0.02;entryY=0.368;entryDx=0;entryDy=0;entryPerimeter=0;" parent="1" source="18" target="54" edge="1">
                    <mxGeometry relative="1" as="geometry"/>
                </mxCell>
                <mxCell id="18" value="Application&#10;Gateway&#10;WAF" style="shape=image;verticalLabelPosition=bottom;verticalAlign=top;imageAspect=0;aspect=fixed;image=data:image/svg+xml,PHN2ZyB4bWxuczpkYz0iaHR0cDovL3B1cmwub3JnL2RjL2VsZW1lbnRzLzEuMS8iIHhtbG5zOmNjPSJodHRwOi8vY3JlYXRpdmVjb21tb25zLm9yZy9ucyMiIHhtbG5zOnJkZj0iaHR0cDovL3d3dy53My5vcmcvMTk5OS8wMi8yMi1yZGYtc3ludGF4LW5zIyIgeG1sbnM6c3ZnPSJodHRwOi8vd3d3LnczLm9yZy8yMDAwL3N2ZyIgeG1sbnM9Imh0dHA6Ly93d3cudzMub3JnLzIwMDAvc3ZnIiB4bWxuczpzb2RpcG9kaT0iaHR0cDovL3NvZGlwb2RpLnNvdXJjZWZvcmdlLm5ldC9EVEQvc29kaXBvZGktMC5kdGQiIHhtbG5zOmlua3NjYXBlPSJodHRwOi8vd3d3Lmlua3NjYXBlLm9yZy9uYW1lc3BhY2VzL2lua3NjYXBlIiB2ZXJzaW9uPSIxLjEiIGlkPSJMYXllcl8xIiB4PSIwcHgiIHk9IjBweCIgd2lkdGg9IjUwcHgiIGhlaWdodD0iNTBweCIgdmlld0JveD0iMCAwIDUwIDUwIiBlbmFibGUtYmFja2dyb3VuZD0ibmV3IDAgMCA1MCA1MCIgeG1sOnNwYWNlPSJwcmVzZXJ2ZSIgc29kaXBvZGk6ZG9jbmFtZT0iQXBwbGljYXRpb24gR2F0ZXdheS5zdmciIGlua3NjYXBlOnZlcnNpb249IjAuOTIuMyAoMjQwNTU0NiwgMjAxOC0wMy0xMSkiPjxtZXRhZGF0YSBpZD0ibWV0YWRhdGEzOTEyIj48cmRmOlJERj48Y2M6V29yayByZGY6YWJvdXQ9IiI+PGRjOmZvcm1hdD5pbWFnZS9zdmcreG1sPC9kYzpmb3JtYXQ+PGRjOnR5cGUgcmRmOnJlc291cmNlPSJodHRwOi8vcHVybC5vcmcvZGMvZGNtaXR5cGUvU3RpbGxJbWFnZSIvPjxkYzp0aXRsZS8+PC9jYzpXb3JrPjwvcmRmOlJERj48L21ldGFkYXRhPjxkZWZzIGlkPSJkZWZzMzkxMCIvPjxzb2RpcG9kaTpuYW1lZHZpZXcgcGFnZWNvbG9yPSIjZmZmZmZmIiBib3JkZXJjb2xvcj0iIzY2NjY2NiIgYm9yZGVyb3BhY2l0eT0iMSIgb2JqZWN0dG9sZXJhbmNlPSIxMCIgZ3JpZHRvbGVyYW5jZT0iMTAiIGd1aWRldG9sZXJhbmNlPSIxMCIgaW5rc2NhcGU6cGFnZW9wYWNpdHk9IjAiIGlua3NjYXBlOnBhZ2VzaGFkb3c9IjIiIGlua3NjYXBlOndpbmRvdy13aWR0aD0iNjQwIiBpbmtzY2FwZTp3aW5kb3ctaGVpZ2h0PSI0ODAiIGlkPSJuYW1lZHZpZXczOTA4IiBzaG93Z3JpZD0iZmFsc2UiIGlua3NjYXBlOnpvb209IjYuMjYiIGlua3NjYXBlOmN4PSIyNSIgaW5rc2NhcGU6Y3k9IjI1IiBpbmtzY2FwZTp3aW5kb3cteD0iMCIgaW5rc2NhcGU6d2luZG93LXk9IjAiIGlua3NjYXBlOndpbmRvdy1tYXhpbWl6ZWQ9IjEiIGlua3NjYXBlOmN1cnJlbnQtbGF5ZXI9IkxheWVyXzEiLz4mI3hhOzxwYXRoIGZpbGw9IiM3RkJBMDAiIGQ9Ik0yNSw1MGMtMS4yLDAtMi40LTAuNS0zLjMtMS40TDEuNCwyOC4zQzAuNSwyNy40LDAsMjYuMiwwLDI1czAuNS0yLjQsMS40LTMuM0wyMS43LDEuNCAgQzIyLjYsMC41LDIzLjgsMCwyNSwwczIuNCwwLjUsMy4zLDEuNGwyMC40LDIwLjRjMC45LDAuOSwxLjQsMiwxLjQsMy4zYzAsMS4yLTAuNSwyLjQtMS40LDMuM0wyOC4zLDQ4LjZDMjcuNCw0OS41LDI2LjIsNTAsMjUsNTAiIGlkPSJwYXRoMzg5MSIvPiYjeGE7PHBhdGggZmlsbD0iI0ZGRkZGRiIgZD0iTTI5LjczOCwxOC41ODRjLTEuMzk4LDEuMDY5LTMuMDQ0LDEuNTg5LTQuNjgsMS41ODljLTIuMzIsMC00LjYxNC0xLjA0Mi02LjEzMS0zLjAyNSAgYy0yLjU5LTMuMzgyLTEuOTUxLTguMjE5LDEuNDM3LTEwLjgxMWMxLjM5Ny0xLjA3NSwzLjA0Ni0xLjU4OCw0LjY3OS0xLjU4OGMyLjMyLDAsNC42MTUsMS4wNDIsNi4xMzEsMy4wMjYgIEMzMy43NjUsMTEuMTU4LDMzLjExOSwxNS45OTYsMjkuNzM4LDE4LjU4NCIgaWQ9InBhdGgzODkzIi8+JiN4YTs8cGF0aCBvcGFjaXR5PSIwLjE1IiBmaWxsPSIjRkZGRkZGIiBlbmFibGUtYmFja2dyb3VuZD0ibmV3ICAgICIgZD0iTTI4LjMsMS40QzI3LjQsMC41LDI2LjIsMCwyNSwwcy0yLjQsMC41LTMuMywxLjRMMS40LDIxLjcgIEMwLjUsMjIuNiwwLDIzLjgsMCwyNXMwLjUsMi40LDEuNCwzLjNsMTEuNSwxMS41TDM0LjYsNy43TDI4LjMsMS40eiIgaWQ9InBhdGgzODk1Ii8+JiN4YTs8cG9seWdvbiBmaWxsPSIjRkZGRkZGIiBwb2ludHM9IjI1LDQ1LjYgMzEuNiwzOSAyNi45LDM5IDI2LjksMTkuMTQ5IDIzLDE5LjE0OSAyMywzOSAxOC40LDM5ICIgaWQ9InBvbHlnb24zODk3Ii8+JiN4YTs8cG9seWdvbiBmaWxsPSIjRkZGRkZGIiBwb2ludHM9IjM5LjMzLDMzLjQ4IDM5LjMzLDI0LjE0NiAzNi4wNzcsMjcuMzk5IDI3LjYzMywxOC45NTUgMjQuODA1LDIxLjc4MyAzMy4yNDksMzAuMjI3IDI5Ljk5NiwzMy40OCAgICIgaWQ9InBvbHlnb24zODk5Ii8+JiN4YTs8cG9seWdvbiBmaWxsPSIjRkZGRkZGIiBwb2ludHM9IjEwLjY4NSwzMy41MTUgMjAuMDE4LDMzLjUxNSAxNi43NjYsMzAuMjYzIDI1LjQ0NywyMS41ODIgMjIuNjE4LDE4Ljc1MyAxMy45MzcsMjcuNDM0ICAgMTAuNjg1LDI0LjE4MiAiIGlkPSJwb2x5Z29uMzkwMSIvPiYjeGE7PHBhdGggZmlsbD0iIzU5QjREOSIgZD0iTTI5LjExNSwxNy43NzFjLTEuMjEyLDAuOTI3LTIuNjQsMS4zNzgtNC4wNTgsMS4zNzhjLTIuMDEyLDAtNC4wMDItMC45MDMtNS4zMTYtMi42MjMgIGMtMi4yNDYtMi45MzMtMS42OTItNy4xMjcsMS4yNDYtOS4zNzVjMS4yMTItMC45MzIsMi42NDEtMS4zNzcsNC4wNTctMS4zNzdjMi4wMTIsMCw0LjAwMiwwLjkwMyw1LjMxNiwyLjYyNCAgQzMyLjYwOCwxMS4zMzEsMzIuMDQ4LDE1LjUyNiwyOS4xMTUsMTcuNzcxIiBpZD0icGF0aDM5MDMiLz4mI3hhOzxwYXRoIGZpbGw9IiNGRkZGRkYiIGQ9Ik0yNy44ODYsMTMuNjM1YzAuNDg2LDAuNjM0LDEuMzg4LDAuNzQ4LDIuMDE4LDAuMjY5YzAuMDMzLTAuMDI1LDAuMDU4LTAuMDU2LDAuMDg4LTAuMDgzICBjMC42NDUsMC40NTQsMS4wOTIsMC43NTQsMS4zNDQsMC45MjVjMC4wNzUtMC4xOTMsMC4xMjYtMC4zNzksMC4xNzktMC41NzNjLTAuMjY2LTAuMTk4LTAuNjI3LTAuNDc2LTEuMTQ4LTAuODk4ICBjMC4xNzEtMC40NDksMC4xMTctMC45NzQtMC4xOTUtMS4zODRjLTAuNDQ3LTAuNTc4LTEuMjM4LTAuNzI1LTEuODU2LTAuMzY4Yy0wLjY4MS0wLjYxMS0xLjQzLTEuMzEyLTIuMjE5LTIuMDk2ICBjMi40NTItMS4zMTksNC4xOTQtMS4xMjYsNC4xOTQtMS4xMjZjLTAuMjkxLTAuMzcxLTAuNjE3LTAuNjk2LTAuOTY1LTAuOTg5Yy0xLjAzNC0wLjE2LTIuNjQtMC4xNDItNC40NzYsMC44MzRsLTAuMDAxLTAuMDAxaDAgIGMtMC42MTItMC42NC0xLjIzNC0xLjMyNy0xLjg2OC0yLjA2M2MtMC4zMDMsMC4wOTctMC42LDAuMjE3LTAuODg2LDAuMzZjMC40NjgsMC43NjYsMS4wOTgsMS41MzgsMS44MDcsMi4yOTJsMCwwICBjMC4wMDEsMC4wMDIsMC4wMDMsMC4wMDMsMC4wMDUsMC4wMDVjLTAuNTkyLDAuNDE0LTEuMjUsMC45NjctMS44NTgsMS42MDljLTAuMDc4LDAuMDgzLTAuMTUyLDAuMTY2LTAuMjI1LDAuMjQ5ICBjLTAuMzYzLTAuMDc2LTAuNzQ1LTAuMDU0LTEuMTAyLDAuMDc1Yy0wLjYwNi0xLjMwNy0wLjU1Ny0yLjM1Ny0wLjQ2MS0yLjg5OGMtMC4yNjMsMC4yNzYtMC41MDksMC41NjUtMC43MiwwLjg3NCAgYy0wLjE1OCwwLjY0Ni0wLjIwMywxLjU3OCwwLjI2NCwyLjcwMWMtMC41NCwwLjcwNy0wLjU2NiwxLjcwOS0wLjAwMSwyLjQ0OWMwLjA0NywwLjA2MSwwLjA5NywwLjExOCwwLjE1LDAuMTczICBjLTAuMjQ2LDAuODM5LTAuMzU3LDEuNjQ5LTAuMzkxLDIuMzQ0YzAuMDYzLDAuMDg2LDAuMDYzLDAuMTU2LDAuMTI2LDAuMjRjMC4zMjEsMC40MTEsMC43MjQsMC43NTgsMS4xMTMsMS4wNzIgIGMtMC4wNDgtMC43MzYsMC4wMDQtMS44MjEsMC40NTktMy4wNDNjMC4zMTQsMC4wMjQsMC42MzMtMC4wMjYsMC45MzItMC4xNTFjMC4xNzEsMC4xNTEsMC4zNSwwLjMwMywwLjU0MiwwLjQ1OCAgYzAuNjU2LDAuNTIsMS4zMTEsMC45MjQsMS45NDksMS4yNDJjLTAuMDMzLDAuMzI1LDAuMDQ4LDAuNjYyLDAuMjU5LDAuOTQxYzAuNDUxLDAuNTgyLDEuMjg2LDAuNjkxLDEuODY4LDAuMjQ2ICBjMC4xMjEtMC4wOTMsMC4yMTctMC4yMDUsMC4yOTYtMC4zMjVjMS4wNDEsMC4yMzIsMS45NSwwLjI3MywyLjYyNCwwLjI3M2MwLjEwMywwLDAuNTgyLTAuNjUyLDAuODU3LTEuMDU2ICBjLTAuNDEsMC4wODYtMS42MjgsMC4yNTMtMy4yOTEtMC4yMjVjLTAuMDQtMC4xODctMC4xMTctMC4zNjgtMC4yNC0wLjUzYy0wLjQyMi0wLjU1NC0xLjE5NS0wLjY3NC0xLjc3MS0wLjMwMyAgYy0wLjU3OC0wLjMxNC0xLjE4NC0wLjcwNy0xLjgwOC0xLjIwMWMtMC4xMjYtMC4xLTAuMjQ3LTAuMTk5LTAuMzY0LTAuMjk5YzAuMzgyLTAuNjAxLDAuNDIyLTEuMzcyLDAuMDg1LTIuMDIgIGMwLjA3Ny0wLjA3NywwLjE1Mi0wLjE1MywwLjIzMy0wLjIyOWMwLjYxOC0wLjU3OCwxLjItMS4wNCwxLjc0NC0xLjQxMWMtMC4wMjItMC4wMi0wLjA0Mi0wLjA0Mi0wLjA2My0wLjA2MiAgYzAuMDIyLDAuMDIsMC4wNDIsMC4wNDEsMC4wNjQsMC4wNjFjMCwwLDAsMC0wLjAwMSwwYzAuODM1LDAuNzcyLDEuNzIsMS41MDQsMi41NTksMi4xNTggIEMyNy41MTQsMTIuNjIxLDI3LjU0OSwxMy4xOTQsMjcuODg2LDEzLjYzNXoiIGlkPSJwYXRoMzkwNSIvPiYjeGE7PC9zdmc+" parent="1" vertex="1">
                    <mxGeometry x="-1178" y="440" width="50" height="50" as="geometry"/>
                </mxCell>
                <mxCell id="20" value="" style="aspect=fixed;html=1;points=[];align=center;image;fontSize=12;image=img/lib/azure2/networking/DNS_Zones.svg;" parent="1" vertex="1">
                    <mxGeometry x="-856" y="720" width="40" height="40" as="geometry"/>
                </mxCell>
                <mxCell id="21" value="" style="aspect=fixed;html=1;points=[];align=center;image;fontSize=12;image=img/lib/azure2/networking/Virtual_Networks.svg;" parent="1" vertex="1">
                    <mxGeometry x="-920" y="725" width="50.25" height="30" as="geometry"/>
                </mxCell>
                <mxCell id="22" value="" style="aspect=fixed;html=1;points=[];align=center;image;fontSize=12;image=img/lib/azure2/networking/Network_Security_Groups.svg;" parent="1" vertex="1">
                    <mxGeometry x="-972.15" y="720" width="31.29" height="38" as="geometry"/>
                </mxCell>
                <mxCell id="32" value="PAAS services&lt;br&gt;&lt;br&gt;&lt;br&gt;&lt;br&gt;&lt;br&gt;&lt;br&gt;" style="rounded=1;whiteSpace=wrap;html=1;" parent="1" vertex="1">
                    <mxGeometry x="-1422" y="904" width="517" height="148" as="geometry"/>
                </mxCell>
                <mxCell id="33" value="Keyvault" style="aspect=fixed;html=1;points=[];align=center;image;fontSize=12;image=img/lib/azure2/security/Key_Vaults.svg;" parent="1" vertex="1">
                    <mxGeometry x="-1364" y="967" width="48" height="48" as="geometry"/>
                </mxCell>
                <mxCell id="34" value="Application Insights&lt;br&gt;" style="aspect=fixed;html=1;points=[];align=center;image;fontSize=12;image=img/lib/azure2/monitor/SAP_Azure_Monitor.svg;" parent="1" vertex="1">
                    <mxGeometry x="-1274" y="967" width="55" height="44" as="geometry"/>
                </mxCell>
                <mxCell id="39" value="Event Hub" style="aspect=fixed;html=1;points=[];align=center;image;fontSize=12;image=img/lib/azure2/analytics/Event_Hubs.svg;" parent="1" vertex="1">
                    <mxGeometry x="-1162" y="962" width="55.83" height="50" as="geometry"/>
                </mxCell>
                <mxCell id="54" value="" style="shape=image;verticalLabelPosition=bottom;labelBackgroundColor=#ffffff;verticalAlign=top;aspect=fixed;imageAspect=0;image=data:image/png,iVBORw0KGgoAAAANSUhEUgAAAIMAAACDCAYAAACunahmAAALTUlEQVR4Ae1dbYwdVRl+CvgVARFRIPiBmCgqGEwUFVGKH6A/6L/VaCg0LWza7d55j8RvotTwg0QNRgUVESkYQZYANsDSsvfOe4oGI1aJRpHonyaKMWo0USN+puacuffZzr0z29nZTe6cmTPJ7T7n433nfZ7z3Dlnb7dbwF3GHoqvqIH3gjdChuKfXVXAPRD8RdBVJSLv5QdCNEN0Az1AEDXprAL0AEFnpYjE6QGCqElnFaAHCDorRSRODxBETTqrAD1A0FkpInF6gCBq0lkF6AGCzkoRidMDBEFqsiHIqptWND1A0LQKS+qR/skQextEfwPR/0LsEzDp1pLZWbekr8K2vSeuOKfLg/QAQQBquAUV+xTE/hmiH0NiNyOxt0Dsh0qrN3qO/+w90fNL53R9gB4gCEAR0S/4he0NLiqsNtHLIXonRPsQ3Yad/RdAbOpjjH0Ekl6GrXuOg6TXw+j3IeknMasnwaS3I9ErfM4kfR/E3oMt+mxsH5wGsfdiXs9Ekn4Uog/B6N1I+hdC7Iwfc/Hu6um7fLu3eHxhbU3upAcImlztsDZjf+i3B+w6CrN7Tx0+GTbDDN7rZ4h9FKLXwtibvAHm970col/2WNJvZovojfBb/zQR+wuI3gqj34XL7S6xD2fm0Y0QvRSiTyPLcwAmvQpGLYwehFl6tZ83MpEzkLt/iBc9QBAAC3c+EH3cVyqDt3tjGPsPGPtj3+ffwfZT/p3teLltpLf0+uGinY+ZhaMh+nu4p4Sxn4DRJYj9A8RemZ0/3HlEn4bYXyHRa2D0Zoh90Of273y9DqI/8Pnm9r0Eot+D6F64p4GP020BqDhZIj1AMDmncT3uEe3qde/U0eW2BWeGRM+Csf+CsXdB0mRogMtzZjB6Aoz+x8+X9CvwL3uj3w5cXqM3QOxPYfRqiKo3hbE7hmb5J0Q/7+e4uTsHL/NmE/tvfz/Rv2FOjx2VFdRXeoAggPLn9Q3ZO1ifRGJ7kPRiiB7wi2t0izeAPzDq1ctm6L9m2G8wp6f4p4HRH0H6r4PpvwW9wSWeudif+Hmi16E3ODeLcU+XpZfC6G4Y/fVwu7jPjzkzuHOFP8w6Q+g3AlCwuER6gKB4XuN6MwM8OVw4963lYxD7EX8QdI93x0fs/uxrehmADf484PqNfg7z6Vuzfd+3/+hjHcnsrHEIvf7bhtvJX2Dszzz/+cE7IPonGPs/f/B0uZxJsrjsTNLTN/t2iH/QAwSBsXD7dNFjeXS6H6fjvrNwxhhd4+1Rf9nXjXoMZpeelx/edRTE7oHRn+f7A2vRAwSBEZh2uZK+yR9m3dOil14w7XLWdH96gGBN6boXPL90tt92ksF5wZOnBwiCpxQJ1FWAHiComynGBa8APUAQPKVIoK4C9ABB3UwxLngF6AGC4ClFAnUVoAcI6maKccErQA8QBE8pEqirAD1AUDdTjAteAXqAIHhKkUBdBegBgrqZYlzwCtADBMFTigTqKkAPENTNFOOCV4AeIAieUiRQVwF6gKBuphgXvAL0AEHwlCKBugrQAwR1M8W44BWgBwiCpxQJ1FWAHiComynGBa8APUAQPKVIoK4C9ABB3UwxLngF6AGC4ClFAnUVoAcI6maKccErQA8QBE8pEqirAD1AUDdTjAteAXqAIHhKkUBdBegBgrqZYlzwCtADBMFTigTqKkAPENTNFOOCV4AeIAieUiRQVwF6gKBuphgXvAL0AEHwlDICjs96v1oiTSkNeoCgdGpYA+vBx+hGGHsQZr/1xgpLgdVXS80IVp+jkRFr4WP09KEBDsIZwl1ryddIgQqKIkeCgkkhdtXlY3RXtr3orhztuvlySRreIEeChhdctbzV8jl8Syi6x2rzFeVoeh85EjS94or1VeXDLcGdC4ZbQtEtquYrig2ljxwJQqn8CHVW4eON4H8PZH5LKEpdJV9RXEh95EgQUvUr1FqFj/9tsrp7hSzLQ1XyLc8OE5EjQZg8JqquwieaIS8bNSPIjwfbqsInmiG/vNSMID8ebKsKn2iG/PJSM4L8eLCtKnyiGfLLS80I8uPBtqrwiWbILy81I8iPB9uqwieaIb+81IwgPx5sqwqfkRn85w3u7yP09FK+VfKVBgcyQI4EgRR+pDKr8Fk2g/vfa9xfSpV/+FQl35Fqavo4ORI0veKK9VXhMzJDlZRV8lXJ0+Q55EjQ5GpXUVsVPtEMeUGpGUF+PNhWFT7RDPnlpWYE+fFgW1X4RDPkl5eaEeTHg21V4RPNkF9eakaQHw+2VYVPNEN+eakZQX482FYVPtEM+eWlZgT58WBbVfh4M8QfbuEaUzMCDoUNqvLhj735D52yn4QuYl41X1FsKH3kSBBK5Ueoc7V8sqeE+xTS/X/Xkx9LrzbfEcpr5DA5EjSyzNUXVYdP9ncU7kflJz+arpNv9VVPN4IcCaZbz7rdfS18MlPsHpoi/iOadVuUaSVaixlGNft/S+F/hN4Z49Cou7VfyZGgJVQdn/V+tUSaUhr0AEHp1DjQdgXoAYK2M478ShWgBwhKp8aBtitADxC0nXHkV6oAPUBQOjUOtF0BeoCg7Ywjv1IF6AGC0qlxoO0K0AMEbWcc+ZUqQA8QlE6NA21XgB4gaDvjyK9UAXqAoHRqHGi7AvQAQdsZR36lCtADBKVT40DbFaAHCNrOOPIrVYAeICidGgfargA9QNB2xpFfqQL0AEHp1DjQdgXoAYK2M478ShWgBwhKp8aBtitADxC0nXHkV6oAPUBQOjUOtF0BeoCg7Ywjv1IF6AGC0qlxoO0K0AMEbWdcg19vcG6NqPBC6AGCBnOQdBOMWojeB9H7IfaL2L7vRStW3Bu8YsXxKoNi76kyLfg59ABBgylJ+kGIXsoKe4OLIPo4eovHs28crMdCrkeO8bqa2KYHCJpY5bCmcTO47kSvgEmv8k8I0a/C6BLEfgYzC8+EpF+Hsb+DSW9Hb/GFEH0/xD4IsQtIBudNME30wz6X6EM+h4tx18gMRfE+RrdA7CIk/Sy27T3RxyR6FsTeC2PvQtK/cOJeTeygBwiaWOWwpiIz7Oy/Eom9BW476A0uwczC0RC9FpJe7KNGC+kabjF7+mLM6kl+8capGvtXSDqH2Zue4XMZvTmXoyje2H2Q9Hr0Fp8F9zseEpUsRvvY0T/DP7XEPoyte44bv13j2vQAQeNKXC6oyAzzeiZEv+YnOWOIvRKi34Gkn/Z9h5she1psQqIfh9inlhMPkegvAWxgvzufuGuUoyje6AOY3Xuqn+e2K/fUmV86G2JTv6W5bS2rZxPzNhXQAwRNrdQtytiZwZVq7A5vAJNu9dtBou+BsR/g74EeLaR754r2IToPo+dA7KMTTN27/PDLbTnucjnK4kf5R3GunaTvhKR3QPrv5mv74LTRlMZ+pQcIGlvqpBl66QUQuz87H9hF7Hjg+b56ozcsm0Hv933SfyNM+iWP3VmgiK/Rv2O0aDvT18LlcZdb4LL4IjP4J4hd5FPGPTHc9tX0i5oQNLhi944X+5g/mIndA7E3wugJvmKxM8PD4SJEb0Wi1wz7b4PotyD9k4fj3/bfnhr7yART0QPwL7f49gm4LchdRu/OziL+8JmPd2OHX6O2O9hmT6I7fb0rfcdzePw0MT1AMM1q1njvmYXnYPO+505kmdNj2ecOj2XX6F0+p6fwXT0+d6X48bkb9ZgVv+0dnz/tNj1AMO2Kpnj/kRmmWMJUb00PEEy1nOne3G1DXb7oAYIuq9Fx7vQAQccF6TJ9eoCgy2p0nDs9QNBxQbpMnx4g6LIaHedODxB0XJAu06cHCLqsRse50wMEHReky/TpAYIuq9Fx7vQAQccF6TJ9eoCgy2p0nDs94EB8dV6D/wP9sO+CnBd5PgAAAABJRU5ErkJggg==;" parent="1" vertex="1">
                    <mxGeometry x="-1047.9966428920197" y="415.9956812395369" width="131" height="131" as="geometry"/>
                </mxCell>
                <mxCell id="55" value="" style="shape=image;verticalLabelPosition=bottom;labelBackgroundColor=#ffffff;verticalAlign=top;aspect=fixed;imageAspect=0;image=data:image/png,iVBORw0KGgoAAAANSUhEUgAAAIMAAACCCAYAAABlwXvDAAAMtklEQVR4Ae1daawkVRU+A7IoQQQMidEosmkQtyhKEBSDrG4J+kI0jAyDPObNm6pzVQQhOI5xwSCixGWYBJF9eSoBgWFmXnedC2owgRgXXH6A4BI0YNxAJW7oOdX1ve5n93tdXT3TtdxKat5Xt+499zvf/ereW92T94icfzqcQQOyQ80QjmYrAA8ANFuPRmcPDwA0Wo5mJw8PADRbj0ZnDw8ANFqOZicPDwA0W49GZw8PADRajmYnDw8ANFuPRmcPDwA0Wo5mJw8PADRbj0ZnDw8ANFqOZicPDwBUWI9YDiPXPqnCGfShvmEn4uRdNNt+UZ+b4y2CBwDGG78nGvvLyPlf2cn+J+TkKorkiJ46RS5YLiKW3xYJscPbrtm6H0XtAwf2G23ezb5AZDl7YJ1x3YAHAMYVuU8cJ9eRk98Q+7OI5Vpy8idi+RdFyVv71M5fVEUzpBpcODDZmpvhB0h8trUvsf8HsdxvZVH7eGK/mdh/kyJ5C3HyEmJ/C0Wto+1+vO1gu+bW4bS4rlboNsMq2Z1YTiXnv0Wx/yrFcpTFYDnNrlnWEfu7KfYfpTO37NO3/zRmp35yAbnkGquX/cPyGXL+fHLyBWIRiv0ZNL1pFyJaQVHyJutH+4/k3TQ1tytF8682/s7PkPNt4uQr5OSfxP6nxHKJzRCag/P32L21chA1xgwqqpM7iOXvNC3PTY3hryZOLrapUddJlt8RJ1ea/pysJydPLlF3YZnQGCxPkC5NLFssnu4pUrGfJvbftQHQeCwbl4ypsybLg8T+U5kPUj5yb2cKv9aMktY7leLk5E75jcRyRTrgar7khE75E536M8TyVMdIKymW04nldop9ROx/mS6j9V4mFmYGVZTlLmL/V3IymwqVrCfWp9D/OxUluZScPE5TczsTy4/Tp21Q3c6eQes6/yhxcqkNmj6tzv+FYvlkOnv4/9jg603dt9g+ZomYOsgzrQMsVvc/bGb4EYqcPGLLH/s5Yv99lJsZ5Tswg0tWL9zzfyaWdJmwHJP3mYE1lvMPNWdm0M2TTpNO5snJZztPzUabIm0KTU4hJ6+y8ljWpD/bRw6smy0TTp5jcePk3AXR5dfEcnlnKfm9TeV6U5/c9Cns37/F9I8hTjdQM+gylh3p7HE1ObnPlruF8muJ5ecwQ9Q6NLtF3GUG9tcTG88Lif02Ynm45mbwD1EsJxLL523nr0sEt15B65I3pIPtI3uN0qdn5o69TTT2P7SlhOVndj2obmYGrcT+NluLda/AydqOoY7CMuHEEbeOS5ch/+WB/afLyqMYvG5gM4M8SXFyLMXJtPXBforYf8D4uuQU29vozKZPf7ZMzLYOQRj2j5HzN5OT/clmFn89qVnMWLU2Q3KNCaZLQDoN3ky6KUyPFZ01/HFbInSa1ZlDD5YPdQbznCXrxsmnbXnQSlHySnJya2e9fph0v5HG0n3FU+TkgXTw5EFaJy+1mUI3cTpwyi/rX2Pq09rvSJeJh4jljx0jbKOVW/ewDanOQvqmkL4tXG65qPl0yel+lbQ+TY/7SGcy4+b/Zptq9r/AzKBm296HcrMDYHv3uEx83XWvvm3PZWqlt4epm8ZagXjdT7q+zSw+homZtbFlIrnB9jO6NC0+9E1Az+WO6fm9Om8hZLkP02a5mKPchwcARolSoTbdZihKOzND0ThlaQ8PAJSF2XbikU7V548lun4qqJ9l1OWABwDqklnII7cC8ABA7hChQV0UgAcA6pJZyCO3AvAAQO4QoUFdFIAHAOqSWcgjtwLwAEDuEKFBXRSABwDqklnII7cC8ABA7hChQV0UgAcA6pJZyCO3AvAAQO4QoUFdFIAHAOqSWcgjtwLwAEDuEKFBXRSABwDqklnII7cC8ABA7hChQV0UgAcA6pJZyCO3AvAAQO4QoUFdFIAHAOqSWcgjtwLwAEDuEKFBXRSABwDqklnII7cC8ABA7hChQV0UgAcA6pJZyCO3AvAAQO4QoUFdFIAHAOqSWcgjtwLwAEDuEKFBXRSABwDqklnII7cC8ABA7hDlaKD8y3CWQ43RWMADAKPFmXirMvAvA4ciAwH+AEWiTbBtGfiXgUORIQB/gCLRJth2XPw1zuJYTlalS5Ds35Oh1ZVVKFvcDjcqAsAfoCLEF9McF38nG8jJMT3h9VoN0X2kv2llUVn2yy66K1YIQ0OACpHvploG/mXg0K1JXgz+AHkjlKS+8nd3+8meYWYohxvMDDad65Q+oTOYoTxmmDSTOsyupmFtEpmgI2qjYW0SGdEMtrTc7UdsnTarjYa1SWSE4TQj2OcLj9gGdIQQ1qQ2GtYmkZwjCSPYplN/S+tVIxuiNhrWJpEcZug2QtYs/TBpNEPURsPaJJKN6jI/+xmhu4l9EplzD1EbDWuTSPeIDsDLGSFrltcQtdGwNolkI7nET81VDTHMYYbwjwxT9f++4BqqUYkqwQMAJSKXh8qw/G1PMOTgav956g/LIU9eO7Iu+APsyN7H2New/PsNri0b+jU1zoWvqvvVH0R7WA6D2k+6HPwBJs1oxP6H5d9vcNOlQJcO/RNFvUtIv/qDKA7LYVD7SZeDP8CkGY3Y/7D8+w2umUE2WM/2zWfXfqJf/UEUh+UwqP2ky8EfYNKMRux/WP79BjeYIRUdGgKMOBiTbjYs/9QMuhTop43ZeRWpIfRIZwbdP2T3jiE35IZzWA6T1mpQ/+APMKhmycuH5Q8zeP1Tgdmp5ugyA8r1vv6fyPBqWfLh76U3rBl6W433qgwcimQE/gBFok2wbRn4l4FDkSEAf4Ai0SbYtgz8y8ChyBCAP0CRaBNsWwb+ZeBQZAjAH6BItAm2Vf5lOCcoQeGu4QGAwiFDgKoqAA8AVDWTwLuwAvAAQOGQIUBVFYAHAKqaSeBdWAF4AKBwyBCgqgrAAwBVzSTwLqwAPABQOGQIUFUF4AGAqmYSeBdWAB4AKBwyBKiqAvAAQFUzCbwLKwAPABQOGQJUVQF4AKCqmQTehRWABwAKhwwBqqoAPABQ1UwC78IKwAMAhUOGAFVVAB4AqGomgXdhBeABgMIhQ4CqKgAPAFQ1k8C7sALwAEDhkCFAVRWABwCqmkngXVgBeACgcMgQoKoKwAMAVc0k8C6sADwAUDhkCFBVBeABgKpmEngXVgAeACgcMgSoqgLwAEBVMwm8CysADwAUDhkCVFUBeACgqpkE3oUVgAcACocMAaqqADwAUNVMtiPveNvBNHPH3tuxh3KEhgcAysFrSRacXNlzP5IXEPuP95SN84L9h4mT148zZCljwQMApaTZS4r9nT0F67a+mFi+2FM2zotghnGqOeZYg8ywSnYnlkuI5XaKfWS9xnIYsb+FnL+Z4tabrcwlHyT2ZxH7zTR9+7PALk7eSSxvIyfXEcs3iJMT7F5mhjVb9yOWjeRk3maiqbldKWofSLGsIZdcQ05uJdc+KY23YSfi5AJyfitxsr4SywwmBABIU14wyAwsZxMna4loBU1veV46kNKimdYBFG1+NrHfRqtv29MGKPafo2PkGT1J2qDL92itHESzrX2tfroEpcuEDnzUfjtNze1MLJ8ws3DrcGL/B5pNXkbT83sR+4RIjSCnWp3pTbsQJ+8glot6+irjBTwAUEaWizix3NVTooOty0TcPpL0Xjz/Qru/bv7lNjgsp1F63pQOjL+TotahPTH0Qs3gktUod/49ZAbr2jPMtg5JZxXRWOvJzCAb0UZnJp2NbJbwM9Zv7FcSy72oU1YADwCUlWkXL+fvsaczK7Inr7OBjOQIcuIpltMpTo4lTm4gbh2Hc037+bZs6Oyx+FAzaJvs4OS9Zo5smVCj6HIQy4mkRtFfJJqa4bysCcXyEVonryXlGCcno19uvxF1ygrgAYCyMu3ixcnFJnJWxHKFrfXZtU3N8m3SNV33BdnA61JhU7yfy6r2/LSZwW/qlK0glpvI9gmdmUFjZa+YTr60pBlYzqOofTziZ+1QUEIADwCUkORiSrqmO/k66d7ByQPkOgMY+zPszwSwv96mcm0Xy/uJpUUsN9qMYHsHuWlxSLu2GUDuspmF5X5S06UxzqGo/TpiP2V9qilYvkaxfMxmgTg5F/HUBHHyGtIZSDetCzxXoU5ZATwAUFamfXjp06ZvEN2HbhCjzbt1F9lGUU2w3JEtBxpDz37H1NwzaeXWPfrd6lt25pZ9+paXsRAeACgjyx3EKTPDDuqudN3AAwClo7jjCEWto0lfJZt6wAMATVUi5L3w1/eCGYIb4AGAoEljFYAHABorRUgcHgAImjRWAXgAoLFShMThAYCgSWMVgAcAGitFSBweAAiaNFYBeACgsVKExOEBBeEMGvzvkfgvaWMovdi4lcMAAAAASUVORK5CYII=;" parent="1" vertex="1">
                    <mxGeometry x="-1047.9966428920197" y="237.99710981096547" width="131" height="130" as="geometry"/>
                </mxCell>
                <mxCell id="56" value="" style="shape=image;verticalLabelPosition=bottom;labelBackgroundColor=#ffffff;verticalAlign=top;aspect=fixed;imageAspect=0;image=data:image/png,iVBORw0KGgoAAAANSUhEUgAAAIIAAACICAYAAAArmDObAAAR50lEQVR4Ae1da6glRxGuxPcjEUXjK0pIRBQNiE+IohvMGhWM/tn4SKKXVdd93DM9BDEiUW9UfCFBFiHEV6IYNStqgnHNZu+dno3gW8E/iqKwxMdPf/j44R9XqmqqZ86cmTkzc7rmcc4MnDtzZrqrq6u+rqqu7jMXYDomCUwSmCQwSWCSwCSBSQKTBCYJTBKYJLCZEgjtJcCfLQjtDoT2TgjPxPyJz0JIn3MQxvKRe2fTcliHPkhjH9HbTGmOpNdzCkdlk3ITxZIiEQiiTFYo1skeKXAQQFgGP1gHPwmIhC62QXT3ZUlM131IgBW0k4zwc4liUOG6ymHAJCDJgm4CRncw4FF6J494GpX6il/Wu9SSbKVuZwLFMrE1f86C3plTfnMq3dVgfidQeJM4jX4J6ijYm/fp3hpSJLQICl23pdiV7kmT70cAkOnf8sbAwXsvAGP/BCb+DcDO+Y5uGP8cwvghCOM/g7F3wMxeRc/C6DgYa125VS+oXxRTnFWPY1bltdf6WgCQToXRQTdVNLv75TaE9q8QxqcgtMfAxL8AY/8Fs5MXgonvAhP/0ZXzdUGWzgHCH9B98dcbHecCyALomc4wfhBCew+N/NB+w/WXgGA/T9+Zl3MQ2LepAUEangeEXr+lvUGfaS6ObkB5yjfbu4ysASo4sJ8AE/8H0FXgQUCIjsPMXgwm+iqE8X/h8KmL1IEginGWkGYa44uDpB+tztx5nvu3ItCwUhh9jIGwdwWY6B3sIqKDRIVdg2QXH4IwupHua7mGItbTmREOip2iIut1jzqMLoDcQFfoPw9Ci1lGUTafTXyGhMtAuBu2T18OAOc5gXcJBGm0H/lI6x2dxf92jfhg90oCwcxeB4d+8Fj6oIUw8f/gyO6l7BqSGCErij6AIO3T2gi5zDULJtOOdR8UBfFXKCZAEMhx1D6HwGHszWDsX8BEt8ojd8aAMoz/4L53fcEDZ01cRdbUdS3IdWiPY4dkwSu3SDaa/vXlCkYjoAaMpha1q7iqAXNVRVMQdO8Kqvga87PUVYwkbphAoAe30YBhAoEeCIQyyZim3wO1DClaJ3cgStM6UxA5xOnlkC0BR9643Qw3sciOJtmfmE0yyT1Z+cT9irzxBfs3tMPNyOxALMPQQOAUj+ZT9hhSHj8BQrIJFctlD64nG15lv2ICHKKFc/oUHNm6fV2nVrhnMAwFBKxE3MWU3bDqVzgOYAiGOWD0ay1SMMwDu1Nw0ojr0WySEOaU0p0wHDAc+PwCr4kiewWD7x1EjTuOAMBPzz7SAcIBsh8LIfFPEzmuXFb2+a9MqCGBeQvQ3wgsY5uW1x1AuweExDBl/Hm9z2bonFeay4jxqMNt7MNfhJmzEB1vNqG2u5pWdh0XkMnD6H9kGzYcIDoGbyfxQtc+mdo7Ey8zGIN+7qxZh/1QjRfE/3UhdRcL2Du7aE69DQZDMr3N5S+0GudBq7DtrSuXIDEIntft4L2aGOfoB7ppvOBxSq2Grpym1xkE0tXU2imMVmkkOZOL8GVVRTm5Nrx/XYd4oK5QaLRSDkTX9aVWwYN1ZWvggVCFlDYJBCIGjhv4RRxyT+Ms7mgl2l0EiF20sZIQFCunlkHXTfBgXiEu4QSOnjUQt4MC2dQjBcMKiloiPJbz2SWlSh5rj9QUBHpAK+na4G6LojQHRGsX37piTTFr08+yIaCmKTAFacWmmJ7LaiKdu0ulE49xy1Gb7WzJtYCt5HHxbXWmOoiYpWcEOGpvH29UoY0pvG4hZeTMuRLZnHIJlZdnXZxVM4L4g99EDrX70rhCbcr462Pe2NGgSuuiecGiouXglbr56Vv2OZbLf5e6WmeKF5JdUBptNBrgxIymiaIFpG6CQw5207ayii3qZ/Z5H0CgNvH9kLRQlfLtExS1B7nmmrYm7SJhLSg2l9rNCxzL46hhhbArKaKrfY9Grq+MYI7Z2rTzwsnRaf2VR2BqmlsTalCxCv2FFgHjhyR+YVD0M6Mh3pr685pyKer3QtVGPmShdvUNFrDeXLmodepPyfIv87M4exDAYpTd51HF+6p8VQ0Qos2m27+yWk1dVu1tUj8fMOJtsnolAOHn3Vquoq7qWgV+rXBRu3SPzaH/IGUpAks58vNgIVZYErDmy/vhojkVLQtd6R5o1FaMkubd4BqaJq4uT3nFLouD8uXrtqNRTsullg5OrYi+tEENqZXQzCt2VEDAt8MrTOdpgBbNTJYJp0TGlbcl8Kos1MHDcQNB8gp+g9dS95AXlg/98A6ZxcjcB+0mNPJ9Wwb6fPkmbWmULR29KzRWOEjV4gPFDFkTGeQVOz4gsFVo0uc6ZRfctkZ8UGp66nDouczYgYDiWFCaBxktWBoeIb59EP8M3QO/K5OoAgJZQ3l3gpyTH9SIa+OzX/k07ZTOYOVMquNlmal0BRtcaCWnGrDgitYGQh4Ac9/7BsKSJJDrbf2LBaudF1R9UuUlNcBV3lr1k3z/ynhbLNd/hlF6tqA0ebDiGfuMtPm/mXlOJHFKeUBCzOxDQLmNEQjEt8JClIs92P/Nb9BYEWQq4FqFp8WRjr82WkylL5YbDpjVgEAbYbbQIvgP6jRoTkDQ0lUSe2gEdRo0JyAgEDQCRgGCpt9ZRXse6y6a/JG6hmTjjEfRpG7cBQseqZcFYx6baERqfYDgP8PossoaStOg2UjzucITEHICyXx101INpWnQzPDe+HICQrnIlIEwsGnXmuQRUJ15UJeruN6TDBD8K803s/W6VF4qz0+ZxVos51825VzWe5LnsV6t6lJEU4dwcVRezY7e02xeoyqBlp32VpXT43Q5ZR19nStPty5nqbxE2Ygrr6H7hMwfJs4or44vp1jMKiIHXA5/F8n/k7KsnC635dSJP41ta+g6NZSmMSUtF8/mPNEAgqOpoTQNmpuj7vKeujl/eZHGT3SBIAsZjdmaKlRJIBvrVJVr8syBS2P0auTEm3RuXcvqAkFh9E5A0IFidlbjqwWnKx2U+c+J++r4mOmoBPayDcEhwrOEeApWPE3z3NTGkFPJIYhHcMGCZ3FqxB6eWRwVORqwnrcUogCclXHTB89i0bI0ntkcDTmN+GAOCAtfPIlGC2Ce2BsdGTdyPXM+5260zHhTuodPXQShvaewq0H0SdiOXln4bCw3ze5T4YZTj2vMrtagWggLtBZYmrqH7QeeQXl+E71iTljvvv9JdH9mr5q7P7YvJvoQHNt7cWO22S34/zHxwoyxqcLq9qQpkhEIxv4YQvuduSaMvRnCeA8QCGg1jL0NQnsaTHwLHDjxSJjtXQaBPQxh9HWyKOHeG6h+UVl8YKJrwMQnwcT3QmhDmEWvAdg5H1BRYXwKTPQROHLfE4luGN0IYXw3GPt9COwLIYg/zHWjo8xjSb08P8iTiX8Lxv4IjH3fXP+WfVFzCzJjEAaaKkzq1Tk3cQ8MhC8TEI7tPpfIb9lHg4nPQGANAQGVPtt7Exw48TAw9uNgoqvB7L4MTPwPOBa9AA6dfgKYOCLFFpWdnXwKgSo4/Wyga/tLCOy7wNi3Er1Dtz+CgWI/RXTD+O8wsxcTKLCNIPoAtx1/DY6eelZpvSJ+2lgErdkCCrdwit9EYXUAIGWoIzWXTgUIs72Xg4m+SCRw9AT2PRDEMwIC3kSQmPi9YOy3afQSEOxt0iQY+zkavUVliVZ0rSuL/CEQMDYJ4yNg7PUQxDeAsT9lIETHXVljfwZH7ePpu4neCUF0bWk9tFpyCD+tgKCwyxz5WogPhFkt90CNUmeWv61NgIB10IQe3nsmWYPZyUc5IITRQXIBgX09hPHb6Qc6DISbpCsQ2A/Ctn0pFJUN489ANgZBGgSE+EEIojeC2d3Pn71Xs6WxKV0Tf9e1Edq3EGjCGvWEn6ZAULUGklF0PUoudBvFt5guf/P4HBCiqyGMfw0mUYRYBPTt6L/xCO0XKoFQVBbjAYwt5DDx9xLXcBPM9l4nt6mNPMCKgID8LasnQEC3EthXuTaWXXBsoPMrbPYABYNTM07ADnPD1ZHvofufDqH9kpMPxgbo8/EwdhuC6LVg4gNg4h9ywGbvgMB+lEY/ClkOVE4QvaSwLMYWYXw7BYoUmGJwaK8n64NBIQaqSB8HBlqVLN1sEBtEb4aZva5WPeGHXJ7dBSOBpjBccKaIXiGTKE3N5Q/kppzrKEvKNj37BNqBE4+pPR8vK4sAw8AQgRfsXum6g1PVNkfdehj8IhiXHarWgNxCxQ+fyT3UMOHLOlH2nOfDFQyUVfR4HyN9iglOPx9MFFBQiFPQIR1aeR3p49KJgYxajCg1jpR+P6uSaJoxs4cBorGfpqCwzujUkEUVzcJpXVWFBs9YBzW26ZNVKHoRY4PGqopq+76qtrPBXlW5Pp9pumfs10I2sayzMmrLnq96n+hTRqs6cFy1naL6QwcCuU7FABFl0ihLudSHFEm5wT0BG1ofjSOw7wdMDVM6N76FMojYjgCBsog08zgBwd4VxALVsVtJ+vizIMEfppVxiokzimxQ6Zvv0gSPx4Yax4CNK7RgNgWD/3gkjP9JUzScFWA6WqakWSBg2viQfTIpHtnnNYZbAZNX2H9MaeNh7C4c2b0UZicvBBM/AAfvvaBFb6urEAjoRzX+ZZFtudUAb1Up22qNaxaA/5/HGft7ADjPcRDamK4FCDhLwIUnTPSY+G/0LLT3AeYx8GCln4Dt05fTugXmGfiDKe1rqIzPPxwcKoOg7cu9ySoo+ysUJgUvnqesOLqzB65U4oFAwBGPoxwTVKF9EZj4J+5Ztg6WpQRW9M007by7nxJI2XKrXncx4JBHbqeFKybTrbTgkRee7yAptP92CsMVSUxF44HKxbRxmCwk8UokT6XEWghv+J0sR3zSWRe0FD6nm6ScTgZbvRS/9H3h3J1VwH+6yf+UEwG46mHsr4A+qPj4d7Btn0ckMUWMiuQU9V2ALgMXjfDIpo+z33G1ki3ItyhoRDCserhB1gEIqC81F/1K++UYVoru8w2Lm1g1oSWj+6h9mhvN+bYwUKx77LMPp7ihbvmqcmlg2MJMVxEueSZxWMnj+re9EarZpLSH1qjtIUBoW1+rXgoC3cAwy7/XNYuu1wjIEtH/emiXdMIU8tAOiYMQDF0d3vWWKqbLTiRxA/m31eOGroSfb8e5147iAWmfdVZjTUEq1D13FThm+aHO0JtOMNfQ76pllq+61xzz8NtX6tbxVa71dHEZAw7Ztp25Xka/6jkDQmYV3bdfxVvRMxo0yet3ip5r3yMAalqgFAzduYis0Fz7FD+0DyazNH1eu0C3R3eWBqTK7tR11sN8v60SiAcUNgGiH1BmeXf8EAD65adTmaibnqyUK64lbuHO49vSulMCu6vkTW0EgP4tFMcFHbpOZ6J7iBeKcMFK2eJ8OlkJBgXe93W4NiR4Taa3PttYhdfeBicJZiAjIStApzByHecS94HAwA/+b4J9yQenpylQuB7f4zJYdicBV5YO/qOTtF627b6uiV8KTnvii4Q30MBNlMIKRqXyP6iQhR5yJ8g7CpA+eJ18COAIHFQ6A0foDe2cgqA7t1goA2YE5/k9M1LI3XrfHAwIRMwpGHoyTcLIBp0HBwKRPSdR/O82EvrTOZVAOvAGaoVTMAyUwVSWo70arCXISzRFa//z6jxvY/8+GhCIoCcwiCT8nUcHAuk6TdtoGtZhpksaX7Mzu1xcxRypy3VgIEBMM4o2+JS8R5u6g6rDCR3MyU+5hiaKSV3B+PZhVPaTOja5ikoZycPRuwLpSNl53lWM1N+Vdc7DfTdYNDeVeODTCwl2FVtuMcgL0TUgQusatHC0YdNuBoRsP9uwzmeA62KBTbACmX4vXGbNIV5vyrGp/a7Ur3MXGExSQLm+gHAAGPjyfaXCtB/OAWLNppsEAOwTAX1zXWFjDNEUCoVGgOCtZ42J9FyBgZ3kUCYArKYNZyUQEASKYaesF/lFEE9Z1dVQkKntBCxWgkbYMCwF85bZ35h//X2mH9OlRwk4UOA+RAEGCZ+BoTkCuW3cx5hR/Ijdl0e19E8qBYYop2gTanYHMypy2S5mLJPsZEaQEeCS3cyT4vtXel0O0pGbUyYqVKwIxR0lu5ixDFkZ3MnMu5nrtj3Ccv8H0JdgEviGahIAAAAASUVORK5CYII=;" parent="1" vertex="1">
                    <mxGeometry x="-1047.9952143205912" y="574.0040454973496" width="130" height="136" as="geometry"/>
                </mxCell>
                <mxCell id="67" style="edgeStyle=orthogonalEdgeStyle;rounded=0;orthogonalLoop=1;jettySize=auto;html=1;entryX=0;entryY=0.5;entryDx=0;entryDy=0;" parent="1" source="64" target="56" edge="1">
                    <mxGeometry relative="1" as="geometry"/>
                </mxCell>
                <mxCell id="68" value="Azure Portal&lt;br&gt;SDKs&lt;br&gt;CLIs&lt;br&gt;Scripts&lt;br&gt;Terraform&lt;br&gt;Bicep&lt;br&gt;ARM" style="edgeLabel;html=1;align=center;verticalAlign=middle;resizable=0;points=[];" parent="67" vertex="1" connectable="0">
                    <mxGeometry x="-0.5004" y="-3" relative="1" as="geometry">
                        <mxPoint as="offset"/>
                    </mxGeometry>
                </mxCell>
                <mxCell id="64" value="Publishers&lt;br&gt;&lt;br&gt;&lt;br&gt;&lt;br&gt;&lt;br&gt;&lt;br&gt;&lt;br&gt;&lt;br&gt;&lt;br&gt;&lt;br&gt;&lt;br&gt;&lt;br&gt;&lt;br&gt;&lt;br&gt;&lt;br&gt;&lt;br&gt;&lt;br&gt;&lt;br&gt;" style="rounded=1;whiteSpace=wrap;html=1;" parent="1" vertex="1">
                    <mxGeometry x="-1885" y="585" width="243" height="310" as="geometry"/>
                </mxCell>
                <mxCell id="65" value="&#10;Internal publishers" style="shape=image;verticalLabelPosition=bottom;verticalAlign=top;imageAspect=0;aspect=fixed;image=data:image/svg+xml,PHN2ZyB4bWxuczpkYz0iaHR0cDovL3B1cmwub3JnL2RjL2VsZW1lbnRzLzEuMS8iIHhtbG5zOmNjPSJodHRwOi8vY3JlYXRpdmVjb21tb25zLm9yZy9ucyMiIHhtbG5zOnJkZj0iaHR0cDovL3d3dy53My5vcmcvMTk5OS8wMi8yMi1yZGYtc3ludGF4LW5zIyIgeG1sbnM6c3ZnPSJodHRwOi8vd3d3LnczLm9yZy8yMDAwL3N2ZyIgeG1sbnM9Imh0dHA6Ly93d3cudzMub3JnLzIwMDAvc3ZnIiB4bWxuczpzb2RpcG9kaT0iaHR0cDovL3NvZGlwb2RpLnNvdXJjZWZvcmdlLm5ldC9EVEQvc29kaXBvZGktMC5kdGQiIHhtbG5zOmlua3NjYXBlPSJodHRwOi8vd3d3Lmlua3NjYXBlLm9yZy9uYW1lc3BhY2VzL2lua3NjYXBlIiB2aWV3Qm94PSIwIDAgNTAgNTAiIHZlcnNpb249IjEuMSIgaWQ9InN2ZzgzMiIgc29kaXBvZGk6ZG9jbmFtZT0iU29mdHdhcmUgYXMgYSBTZXJ2aWNlIChTYWFTKS5zdmciIGlua3NjYXBlOnZlcnNpb249IjAuOTIuMyAoMjQwNTU0NiwgMjAxOC0wMy0xMSkiPiYjeGE7ICA8bWV0YWRhdGEgaWQ9Im1ldGFkYXRhODM4Ij4mI3hhOyAgICA8cmRmOlJERj4mI3hhOyAgICAgIDxjYzpXb3JrIHJkZjphYm91dD0iIj4mI3hhOyAgICAgICAgPGRjOmZvcm1hdD5pbWFnZS9zdmcreG1sPC9kYzpmb3JtYXQ+JiN4YTsgICAgICAgIDxkYzp0eXBlIHJkZjpyZXNvdXJjZT0iaHR0cDovL3B1cmwub3JnL2RjL2RjbWl0eXBlL1N0aWxsSW1hZ2UiLz4mI3hhOyAgICAgICAgPGRjOnRpdGxlLz4mI3hhOyAgICAgIDwvY2M6V29yaz4mI3hhOyAgICA8L3JkZjpSREY+JiN4YTsgIDwvbWV0YWRhdGE+JiN4YTsgIDxkZWZzIGlkPSJkZWZzODM2Ii8+JiN4YTsgIDxzb2RpcG9kaTpuYW1lZHZpZXcgcGFnZWNvbG9yPSIjZmZmZmZmIiBib3JkZXJjb2xvcj0iIzY2NjY2NiIgYm9yZGVyb3BhY2l0eT0iMSIgb2JqZWN0dG9sZXJhbmNlPSIxMCIgZ3JpZHRvbGVyYW5jZT0iMTAiIGd1aWRldG9sZXJhbmNlPSIxMCIgaW5rc2NhcGU6cGFnZW9wYWNpdHk9IjAiIGlua3NjYXBlOnBhZ2VzaGFkb3c9IjIiIGlua3NjYXBlOndpbmRvdy13aWR0aD0iNjQwIiBpbmtzY2FwZTp3aW5kb3ctaGVpZ2h0PSI0ODAiIGlkPSJuYW1lZHZpZXc4MzQiIHNob3dncmlkPSJmYWxzZSIgaW5rc2NhcGU6em9vbT0iNi4yNiIgaW5rc2NhcGU6Y3g9IjI1IiBpbmtzY2FwZTpjeT0iMjUiIGlua3NjYXBlOndpbmRvdy14PSIwIiBpbmtzY2FwZTp3aW5kb3cteT0iMCIgaW5rc2NhcGU6d2luZG93LW1heGltaXplZD0iMSIgaW5rc2NhcGU6Y3VycmVudC1sYXllcj0ic3ZnODMyIi8+JiN4YTsgIDxwYXRoIGQ9Ik00MS4zNjQgMTUuMjA1Yy4wMjctLjM0My4wNTMtLjY4Ni4wNTMtMS4wMzYgMC03LjI0NS01Ljk3My0xMy4xMTktMTMuMzQyLTEzLjExOS01Ljk0OCAwLTEwLjk4MiAzLjgyOS0xMi43MDQgOS4xMTVhMTIuMTIxIDEyLjEyMSAwIDAgMC0yLjIyMi0uMjI0Yy02LjYgMC0xMS45NSA1LjE1MS0xMS45NSAxMS41MDQgMCA2LjM1NCA1LjM1IDExLjUwNCAxMS45NSAxMS41MDRoMjYuNTU2YzUuMTMzIDAgOS4yOTQtNC4wMDYgOS4yOTQtOC45NDguMDAxLTQuMzk1LTMuMjk0LTguMDQyLTcuNjM1LTguNzk2eiIgY2xhc3M9Im1zcG9ydGFsZngtc3ZnLWMxNSIgZmlsbD0iIzU5YjRkOSIgaWQ9InBhdGg4MjAiLz4mI3hhOyAgPHBhdGggb3BhY2l0eT0iLjQiIGQ9Ik0xNSAzM1YxNy4wNzhjMC0xLjE0NS45MzMtMi4wNzggMi4wNzgtMi4wNzhoMTcuODQ0YzEuMTQ1IDAgMi4wNzguOTMzIDIuMDc4IDIuMDc4VjMzSDE1eiIgY2xhc3M9Im1zcG9ydGFsZngtc3ZnLWMwMSIgZmlsbD0iI2ZmZiIgaWQ9InBhdGg4MjIiLz4mI3hhOyAgPHBhdGggZD0iTTM0LjkyMiAxNkgxNy4wNzhjLS41OTUgMC0xLjA3OC40ODMtMS4wNzggMS4wNzh2MzAuODQzYzAgLjU5Ni40ODMgMS4wNzkgMS4wNzggMS4wNzloMTcuODQzYy41OTYgMCAxLjA3OS0uNDgzIDEuMDc5LTEuMDc4VjE3LjA3OGMwLS41OTUtLjQ4My0xLjA3OC0xLjA3OC0xLjA3OHoiIGNsYXNzPSJtc3BvcnRhbGZ4LXN2Zy1jMDQiIGZpbGw9IiM3YTdhN2EiIGlkPSJwYXRoODI0Ii8+JiN4YTsgIDxwYXRoIG9wYWNpdHk9Ii40IiBkPSJNMzQuOTIyIDE2SDI4TDE2IDQzdjQuOTIyYzAgLjU5NS40ODMgMS4wNzggMS4wNzggMS4wNzhoMTcuODQzYy41OTYgMCAxLjA3OS0uNDgzIDEuMDc5LTEuMDc4VjE3LjA3OGMwLS41OTUtLjQ4My0xLjA3OC0xLjA3OC0xLjA3OHoiIGNsYXNzPSJtc3BvcnRhbGZ4LXN2Zy1jMDYiIGZpbGw9IiMxZTFlMWUiIGlkPSJwYXRoODI2Ii8+JiN4YTsgIDxwYXRoIGQ9Ik0xOCAxOWg0djVoLTR6bTYgMGg0djVoLTR6bTYgMGg0djVoLTR6bS0xMiA4aDR2NWgtNHptNiAwaDR2NWgtNHptNiAwaDR2NWgtNHptLTEyIDhoNHY1aC00em02IDBoNHY1aC00em0wIDhoNHY2aC00em02LThoNHY1aC00eiIgY2xhc3M9Im1zcG9ydGFsZngtc3ZnLWMwMSIgZmlsbD0iI2ZmZiIgaWQ9InBhdGg4MjgiLz4mI3hhOyAgPHBhdGggZD0iTTE4IDE5aDR2NWgtNHptNiAwaDR2NWgtNHptNiAwaDR2NWgtNHptLTEyIDhoNHY1aC00em02IDBoNHY1aC00em02IDBoNHY1aC00em0tMTIgOGg0djVoLTR6bTYgMGg0djVoLTR6bTAgOGg0djZoLTR6bTYtOGg0djVoLTR6IiBvcGFjaXR5PSIuMTUiIGNsYXNzPSJtc3BvcnRhbGZ4LXN2Zy1jMTUiIGZpbGw9IiM1OWI0ZDkiIGlkPSJwYXRoODMwIi8+JiN4YTs8L3N2Zz4=" parent="1" vertex="1">
                    <mxGeometry x="-1788" y="712" width="50" height="50" as="geometry"/>
                </mxCell>
                <mxCell id="69" value="Azure Functions" style="aspect=fixed;html=1;points=[];align=center;image;fontSize=12;image=img/lib/azure2/compute/Function_Apps.svg;" vertex="1" parent="1">
                    <mxGeometry x="-347" y="412" width="68" height="60" as="geometry"/>
                </mxCell>
                <mxCell id="70" value="App Services" style="aspect=fixed;html=1;points=[];align=center;image;fontSize=12;image=img/lib/azure2/compute/App_Services.svg;" vertex="1" parent="1">
                    <mxGeometry x="-346" y="526" width="64" height="64" as="geometry"/>
                </mxCell>
                <mxCell id="71" value="VMs" style="aspect=fixed;html=1;points=[];align=center;image;fontSize=12;image=img/lib/azure2/compute/VM_Scale_Sets.svg;" vertex="1" parent="1">
                    <mxGeometry x="-348" y="658" width="68" height="68" as="geometry"/>
                </mxCell>
                <mxCell id="72" value="Spring Cloud" style="aspect=fixed;html=1;points=[];align=center;image;fontSize=12;image=img/lib/azure2/compute/Azure_Spring_Cloud.svg;" vertex="1" parent="1">
                    <mxGeometry x="-214" y="303" width="68" height="64" as="geometry"/>
                </mxCell>
                <mxCell id="73" value="Container Instances" style="aspect=fixed;html=1;points=[];align=center;image;fontSize=12;image=img/lib/azure2/containers/Container_Instances.svg;" vertex="1" parent="1">
                    <mxGeometry x="-216" y="404" width="64" height="69" as="geometry"/>
                </mxCell>
                <mxCell id="74" value="Logic Apps" style="aspect=fixed;html=1;points=[];align=center;image;fontSize=12;image=img/lib/azure2/integration/Logic_Apps.svg;" vertex="1" parent="1">
                    <mxGeometry x="-222" y="536" width="67" height="52" as="geometry"/>
                </mxCell>
                <mxCell id="75" value="Third Party APIs&lt;br&gt;&lt;br&gt;&lt;br&gt;&lt;br&gt;&lt;br&gt;&lt;br&gt;&lt;br&gt;&lt;br&gt;&lt;br&gt;&lt;br&gt;&lt;br&gt;" style="rounded=1;whiteSpace=wrap;html=1;" vertex="1" parent="1">
                    <mxGeometry x="-760" y="-160" width="347" height="200" as="geometry"/>
                </mxCell>
                <mxCell id="88" value="Other APIs" style="shape=image;verticalLabelPosition=bottom;verticalAlign=top;imageAspect=0;aspect=fixed;image=data:image/svg+xml,PHN2ZyB4bWxuczpkYz0iaHR0cDovL3B1cmwub3JnL2RjL2VsZW1lbnRzLzEuMS8iIHhtbG5zOmNjPSJodHRwOi8vY3JlYXRpdmVjb21tb25zLm9yZy9ucyMiIHhtbG5zOnJkZj0iaHR0cDovL3d3dy53My5vcmcvMTk5OS8wMi8yMi1yZGYtc3ludGF4LW5zIyIgeG1sbnM6c3ZnPSJodHRwOi8vd3d3LnczLm9yZy8yMDAwL3N2ZyIgeG1sbnM9Imh0dHA6Ly93d3cudzMub3JnLzIwMDAvc3ZnIiB4bWxuczpzb2RpcG9kaT0iaHR0cDovL3NvZGlwb2RpLnNvdXJjZWZvcmdlLm5ldC9EVEQvc29kaXBvZGktMC5kdGQiIHhtbG5zOmlua3NjYXBlPSJodHRwOi8vd3d3Lmlua3NjYXBlLm9yZy9uYW1lc3BhY2VzL2lua3NjYXBlIiB2ZXJzaW9uPSIxLjEiIGlkPSJMYXllcl8xIiB4PSIwcHgiIHk9IjBweCIgd2lkdGg9IjUwcHgiIGhlaWdodD0iNTBweCIgdmlld0JveD0iMCAwIDUwIDUwIiBlbmFibGUtYmFja2dyb3VuZD0ibmV3IDAgMCA1MCA1MCIgeG1sOnNwYWNlPSJwcmVzZXJ2ZSIgc29kaXBvZGk6ZG9jbmFtZT0iVk0uc3ZnIiBpbmtzY2FwZTp2ZXJzaW9uPSIwLjkyLjMgKDI0MDU1NDYsIDIwMTgtMDMtMTEpIj48bWV0YWRhdGEgaWQ9Im1ldGFkYXRhMTY1MiI+PHJkZjpSREY+PGNjOldvcmsgcmRmOmFib3V0PSIiPjxkYzpmb3JtYXQ+aW1hZ2Uvc3ZnK3htbDwvZGM6Zm9ybWF0PjxkYzp0eXBlIHJkZjpyZXNvdXJjZT0iaHR0cDovL3B1cmwub3JnL2RjL2RjbWl0eXBlL1N0aWxsSW1hZ2UiLz48ZGM6dGl0bGUvPjwvY2M6V29yaz48L3JkZjpSREY+PC9tZXRhZGF0YT48ZGVmcyBpZD0iZGVmczE2NTAiLz48c29kaXBvZGk6bmFtZWR2aWV3IHBhZ2Vjb2xvcj0iI2ZmZmZmZiIgYm9yZGVyY29sb3I9IiM2NjY2NjYiIGJvcmRlcm9wYWNpdHk9IjEiIG9iamVjdHRvbGVyYW5jZT0iMTAiIGdyaWR0b2xlcmFuY2U9IjEwIiBndWlkZXRvbGVyYW5jZT0iMTAiIGlua3NjYXBlOnBhZ2VvcGFjaXR5PSIwIiBpbmtzY2FwZTpwYWdlc2hhZG93PSIyIiBpbmtzY2FwZTp3aW5kb3ctd2lkdGg9IjY0MCIgaW5rc2NhcGU6d2luZG93LWhlaWdodD0iNDgwIiBpZD0ibmFtZWR2aWV3MTY0OCIgc2hvd2dyaWQ9ImZhbHNlIiBpbmtzY2FwZTp6b29tPSI2LjI2IiBpbmtzY2FwZTpjeD0iMjUiIGlua3NjYXBlOmN5PSIyNSIgaW5rc2NhcGU6d2luZG93LXg9IjAiIGlua3NjYXBlOndpbmRvdy15PSIwIiBpbmtzY2FwZTp3aW5kb3ctbWF4aW1pemVkPSIxIiBpbmtzY2FwZTpjdXJyZW50LWxheWVyPSJMYXllcl8xIi8+JiN4YTs8cGF0aCBmaWxsPSIjN0E3QTdBIiBkPSJNMzMsMzhoLTEuMjA3SDE5Ljg5MmgtMC42MjFDMjAuOTIsNDMuOTk5LDE4LjcwNSw0NC44NTksOSw0NC44NTlWNDhoMTIuMzQyaDkuMDExSDQydi0zLjE0MSAgYy05LjcwNSwwLTEwLjY1Ni0wLjg1Ny05LjAwNS02Ljg1OSIgaWQ9InBhdGgxNjI5Ii8+JiN4YTs8cGF0aCBmaWxsPSIjQTBBMUEyIiBkPSJNNDYuOTgsMkgyLjcxOUMxLjIxNSwyLDAuMDAyLDMuMzQ1LDAuMDAyLDQuODQ3djMxLjMyOWMwLDEuNDkzLDEuMjEzLDIuODIzLDIuNzE3LDIuODIzSDQ2Ljk4ICBjMS41MDEsMCwzLjAyMS0xLjMzLDMuMDIxLTIuODIzVjQuODQ3QzUwLjAwMSwzLjM0MSw0OC40ODEsMiw0Ni45OCwyIiBpZD0icGF0aDE2MzEiLz4mI3hhOzxwYXRoIG9wYWNpdHk9IjAuMiIgZmlsbD0iI0ZGRkZGRiIgZW5hYmxlLWJhY2tncm91bmQ9Im5ldyAgICAiIGQ9Ik00Ny4wMTEsMi4wMDNjLTAuMDExLDAtMC4wMjEtMC4wMDItMC4wMzEtMC4wMDJIMi43MTggIGMtMS41MDQsMC0yLjcxNywxLjM0NC0yLjcxNywyLjg0N3YzMS4zMjhDMC4wMDEsMzcuNjcsMS4yMTQsMzksMi43MTgsMzloMS4wNTNMNDcuMDExLDIuMDAzeiIgaWQ9InBhdGgxNjMzIi8+JiN4YTs8cG9seWdvbiBmaWxsPSIjNTlCNEQ5IiBwb2ludHM9IjQ2LDYgNDYsMzUgNCwzNSA0LDYgIiBpZD0icG9seWdvbjE2MzUiLz4mI3hhOzxyZWN0IHg9IjkiIHk9IjQ1IiBmaWxsPSIjQTBBMUEyIiB3aWR0aD0iMzMiIGhlaWdodD0iMyIgaWQ9InJlY3QxNjM3Ii8+JiN4YTs8cGF0aCBmaWxsPSIjQjhENDMyIiBkPSJNMjUuNTE4LDQuMDk1YzAsMC4zOTItMC4zMTgsMC43MS0wLjcxLDAuNzFjLTAuMzkzLDAtMC43MDktMC4zMTgtMC43MDktMC43MWMwLTAuMzkzLDAuMzE2LTAuNzEsMC43MDktMC43MSAgQzI1LjIsMy4zODUsMjUuNTE4LDMuNzAyLDI1LjUxOCw0LjA5NSIgaWQ9InBhdGgxNjM5Ii8+JiN4YTs8cGF0aCBmaWxsPSIjRkZGRkZGIiBkPSJNMjUuMDI4LDE5LjM5NGMtMC4wNDUsMC0wLjA5MS0wLjAxNC0wLjEzNC0wLjAzOGwtOC44MDQtNS4wODJjLTAuMDgxLTAuMDQ4LTAuMTMyLTAuMTM3LTAuMTMyLTAuMjMxICBjMC0wLjA5NSwwLjA1MS0wLjE4MywwLjEzMi0wLjIzbDguNzUxLTUuMDQ5YzAuMDgyLTAuMDQ2LDAuMTgyLTAuMDQ2LDAuMjYzLDBsOC44MDcsNS4wODRjMC4wODIsMC4wNDcsMC4xMzEsMC4xMzUsMC4xMzEsMC4yMyAgYzAsMC4wOTYtMC4wNDksMC4xODMtMC4xMzEsMC4yM2wtOC43NDgsNS4wNDhDMjUuMTIsMTkuMzgsMjUuMDc2LDE5LjM5NCwyNS4wMjgsMTkuMzk0IiBpZD0icGF0aDE2NDEiLz4mI3hhOzxwYXRoIG9wYWNpdHk9IjAuNyIgZmlsbD0iI0ZGRkZGRiIgZW5hYmxlLWJhY2tncm91bmQ9Im5ldyAgICAiIGQ9Ik0yMy43NjMsMzEuNzQ2Yy0wLjA1LDAtMC4wOTUtMC4wMTItMC4xMzQtMC4wMzZsLTguNzc4LTUuMDY2ICBjLTAuMDg1LTAuMDQ3LTAuMTM2LTAuMTMzLTAuMTM2LTAuMjMxVjE2LjI0N2MwLTAuMDk2LDAuMDUxLTAuMTgzLDAuMTM2LTAuMjMxYzAuMDgxLTAuMDQ5LDAuMTgxLTAuMDQ5LDAuMjY4LDBsOC43NzcsNS4wNjQgIGMwLjA3OCwwLjA1LDAuMTMsMC4xMzcsMC4xMywwLjIzM3YxMC4xNjZjMCwwLjA5Ny0wLjA1MiwwLjE4My0wLjEzLDAuMjMxQzIzLjg1MiwzMS43MzQsMjMuODA2LDMxLjc0NiwyMy43NjMsMzEuNzQ2IiBpZD0icGF0aDE2NDMiLz4mI3hhOzxwYXRoIG9wYWNpdHk9IjAuNCIgZmlsbD0iI0ZGRkZGRiIgZW5hYmxlLWJhY2tncm91bmQ9Im5ldyAgICAiIGQ9Ik0yNi4yNDgsMzEuNzQ2Yy0wLjA0OCwwLTAuMDkzLTAuMDEyLTAuMTM4LTAuMDM2ICBjLTAuMDc4LTAuMDQ4LTAuMTI5LTAuMTM0LTAuMTI5LTAuMjMxVjIxLjM3N2MwLTAuMDk0LDAuMDUxLTAuMTgyLDAuMTI5LTAuMjMxbDguNzc3LTUuMDY0YzAuMDg0LTAuMDQ4LDAuMTgyLTAuMDQ4LDAuMjY0LDAgIGMwLjA4NCwwLjA0NywwLjEzNSwwLjEzNSwwLjEzNSwwLjIzdjEwLjEwMWMwLDAuMDk4LTAuMDUxLDAuMTg0LTAuMTM1LDAuMjMxbC04Ljc3NCw1LjA2NiAgQzI2LjM0LDMxLjczNCwyNi4yOTQsMzEuNzQ2LDI2LjI0OCwzMS43NDYiIGlkPSJwYXRoMTY0NSIvPiYjeGE7PC9zdmc+" vertex="1" parent="1">
                    <mxGeometry x="-722" y="-81" width="50" height="50" as="geometry"/>
                </mxCell>
                <mxCell id="89" value="Other APIs" style="shape=image;verticalLabelPosition=bottom;verticalAlign=top;imageAspect=0;aspect=fixed;image=data:image/svg+xml,PHN2ZyB4bWxuczpkYz0iaHR0cDovL3B1cmwub3JnL2RjL2VsZW1lbnRzLzEuMS8iIHhtbG5zOmNjPSJodHRwOi8vY3JlYXRpdmVjb21tb25zLm9yZy9ucyMiIHhtbG5zOnJkZj0iaHR0cDovL3d3dy53My5vcmcvMTk5OS8wMi8yMi1yZGYtc3ludGF4LW5zIyIgeG1sbnM6c3ZnPSJodHRwOi8vd3d3LnczLm9yZy8yMDAwL3N2ZyIgeG1sbnM9Imh0dHA6Ly93d3cudzMub3JnLzIwMDAvc3ZnIiB4bWxuczpzb2RpcG9kaT0iaHR0cDovL3NvZGlwb2RpLnNvdXJjZWZvcmdlLm5ldC9EVEQvc29kaXBvZGktMC5kdGQiIHhtbG5zOmlua3NjYXBlPSJodHRwOi8vd3d3Lmlua3NjYXBlLm9yZy9uYW1lc3BhY2VzL2lua3NjYXBlIiB2ZXJzaW9uPSIxLjEiIGlkPSJMYXllcl8xIiB4PSIwcHgiIHk9IjBweCIgd2lkdGg9IjUwcHgiIGhlaWdodD0iNTBweCIgdmlld0JveD0iMCAwIDUwIDUwIiBlbmFibGUtYmFja2dyb3VuZD0ibmV3IDAgMCA1MCA1MCIgeG1sOnNwYWNlPSJwcmVzZXJ2ZSIgc29kaXBvZGk6ZG9jbmFtZT0iVk0uc3ZnIiBpbmtzY2FwZTp2ZXJzaW9uPSIwLjkyLjMgKDI0MDU1NDYsIDIwMTgtMDMtMTEpIj48bWV0YWRhdGEgaWQ9Im1ldGFkYXRhMTY1MiI+PHJkZjpSREY+PGNjOldvcmsgcmRmOmFib3V0PSIiPjxkYzpmb3JtYXQ+aW1hZ2Uvc3ZnK3htbDwvZGM6Zm9ybWF0PjxkYzp0eXBlIHJkZjpyZXNvdXJjZT0iaHR0cDovL3B1cmwub3JnL2RjL2RjbWl0eXBlL1N0aWxsSW1hZ2UiLz48ZGM6dGl0bGUvPjwvY2M6V29yaz48L3JkZjpSREY+PC9tZXRhZGF0YT48ZGVmcyBpZD0iZGVmczE2NTAiLz48c29kaXBvZGk6bmFtZWR2aWV3IHBhZ2Vjb2xvcj0iI2ZmZmZmZiIgYm9yZGVyY29sb3I9IiM2NjY2NjYiIGJvcmRlcm9wYWNpdHk9IjEiIG9iamVjdHRvbGVyYW5jZT0iMTAiIGdyaWR0b2xlcmFuY2U9IjEwIiBndWlkZXRvbGVyYW5jZT0iMTAiIGlua3NjYXBlOnBhZ2VvcGFjaXR5PSIwIiBpbmtzY2FwZTpwYWdlc2hhZG93PSIyIiBpbmtzY2FwZTp3aW5kb3ctd2lkdGg9IjY0MCIgaW5rc2NhcGU6d2luZG93LWhlaWdodD0iNDgwIiBpZD0ibmFtZWR2aWV3MTY0OCIgc2hvd2dyaWQ9ImZhbHNlIiBpbmtzY2FwZTp6b29tPSI2LjI2IiBpbmtzY2FwZTpjeD0iMjUiIGlua3NjYXBlOmN5PSIyNSIgaW5rc2NhcGU6d2luZG93LXg9IjAiIGlua3NjYXBlOndpbmRvdy15PSIwIiBpbmtzY2FwZTp3aW5kb3ctbWF4aW1pemVkPSIxIiBpbmtzY2FwZTpjdXJyZW50LWxheWVyPSJMYXllcl8xIi8+JiN4YTs8cGF0aCBmaWxsPSIjN0E3QTdBIiBkPSJNMzMsMzhoLTEuMjA3SDE5Ljg5MmgtMC42MjFDMjAuOTIsNDMuOTk5LDE4LjcwNSw0NC44NTksOSw0NC44NTlWNDhoMTIuMzQyaDkuMDExSDQydi0zLjE0MSAgYy05LjcwNSwwLTEwLjY1Ni0wLjg1Ny05LjAwNS02Ljg1OSIgaWQ9InBhdGgxNjI5Ii8+JiN4YTs8cGF0aCBmaWxsPSIjQTBBMUEyIiBkPSJNNDYuOTgsMkgyLjcxOUMxLjIxNSwyLDAuMDAyLDMuMzQ1LDAuMDAyLDQuODQ3djMxLjMyOWMwLDEuNDkzLDEuMjEzLDIuODIzLDIuNzE3LDIuODIzSDQ2Ljk4ICBjMS41MDEsMCwzLjAyMS0xLjMzLDMuMDIxLTIuODIzVjQuODQ3QzUwLjAwMSwzLjM0MSw0OC40ODEsMiw0Ni45OCwyIiBpZD0icGF0aDE2MzEiLz4mI3hhOzxwYXRoIG9wYWNpdHk9IjAuMiIgZmlsbD0iI0ZGRkZGRiIgZW5hYmxlLWJhY2tncm91bmQ9Im5ldyAgICAiIGQ9Ik00Ny4wMTEsMi4wMDNjLTAuMDExLDAtMC4wMjEtMC4wMDItMC4wMzEtMC4wMDJIMi43MTggIGMtMS41MDQsMC0yLjcxNywxLjM0NC0yLjcxNywyLjg0N3YzMS4zMjhDMC4wMDEsMzcuNjcsMS4yMTQsMzksMi43MTgsMzloMS4wNTNMNDcuMDExLDIuMDAzeiIgaWQ9InBhdGgxNjMzIi8+JiN4YTs8cG9seWdvbiBmaWxsPSIjNTlCNEQ5IiBwb2ludHM9IjQ2LDYgNDYsMzUgNCwzNSA0LDYgIiBpZD0icG9seWdvbjE2MzUiLz4mI3hhOzxyZWN0IHg9IjkiIHk9IjQ1IiBmaWxsPSIjQTBBMUEyIiB3aWR0aD0iMzMiIGhlaWdodD0iMyIgaWQ9InJlY3QxNjM3Ii8+JiN4YTs8cGF0aCBmaWxsPSIjQjhENDMyIiBkPSJNMjUuNTE4LDQuMDk1YzAsMC4zOTItMC4zMTgsMC43MS0wLjcxLDAuNzFjLTAuMzkzLDAtMC43MDktMC4zMTgtMC43MDktMC43MWMwLTAuMzkzLDAuMzE2LTAuNzEsMC43MDktMC43MSAgQzI1LjIsMy4zODUsMjUuNTE4LDMuNzAyLDI1LjUxOCw0LjA5NSIgaWQ9InBhdGgxNjM5Ii8+JiN4YTs8cGF0aCBmaWxsPSIjRkZGRkZGIiBkPSJNMjUuMDI4LDE5LjM5NGMtMC4wNDUsMC0wLjA5MS0wLjAxNC0wLjEzNC0wLjAzOGwtOC44MDQtNS4wODJjLTAuMDgxLTAuMDQ4LTAuMTMyLTAuMTM3LTAuMTMyLTAuMjMxICBjMC0wLjA5NSwwLjA1MS0wLjE4MywwLjEzMi0wLjIzbDguNzUxLTUuMDQ5YzAuMDgyLTAuMDQ2LDAuMTgyLTAuMDQ2LDAuMjYzLDBsOC44MDcsNS4wODRjMC4wODIsMC4wNDcsMC4xMzEsMC4xMzUsMC4xMzEsMC4yMyAgYzAsMC4wOTYtMC4wNDksMC4xODMtMC4xMzEsMC4yM2wtOC43NDgsNS4wNDhDMjUuMTIsMTkuMzgsMjUuMDc2LDE5LjM5NCwyNS4wMjgsMTkuMzk0IiBpZD0icGF0aDE2NDEiLz4mI3hhOzxwYXRoIG9wYWNpdHk9IjAuNyIgZmlsbD0iI0ZGRkZGRiIgZW5hYmxlLWJhY2tncm91bmQ9Im5ldyAgICAiIGQ9Ik0yMy43NjMsMzEuNzQ2Yy0wLjA1LDAtMC4wOTUtMC4wMTItMC4xMzQtMC4wMzZsLTguNzc4LTUuMDY2ICBjLTAuMDg1LTAuMDQ3LTAuMTM2LTAuMTMzLTAuMTM2LTAuMjMxVjE2LjI0N2MwLTAuMDk2LDAuMDUxLTAuMTgzLDAuMTM2LTAuMjMxYzAuMDgxLTAuMDQ5LDAuMTgxLTAuMDQ5LDAuMjY4LDBsOC43NzcsNS4wNjQgIGMwLjA3OCwwLjA1LDAuMTMsMC4xMzcsMC4xMywwLjIzM3YxMC4xNjZjMCwwLjA5Ny0wLjA1MiwwLjE4My0wLjEzLDAuMjMxQzIzLjg1MiwzMS43MzQsMjMuODA2LDMxLjc0NiwyMy43NjMsMzEuNzQ2IiBpZD0icGF0aDE2NDMiLz4mI3hhOzxwYXRoIG9wYWNpdHk9IjAuNCIgZmlsbD0iI0ZGRkZGRiIgZW5hYmxlLWJhY2tncm91bmQ9Im5ldyAgICAiIGQ9Ik0yNi4yNDgsMzEuNzQ2Yy0wLjA0OCwwLTAuMDkzLTAuMDEyLTAuMTM4LTAuMDM2ICBjLTAuMDc4LTAuMDQ4LTAuMTI5LTAuMTM0LTAuMTI5LTAuMjMxVjIxLjM3N2MwLTAuMDk0LDAuMDUxLTAuMTgyLDAuMTI5LTAuMjMxbDguNzc3LTUuMDY0YzAuMDg0LTAuMDQ4LDAuMTgyLTAuMDQ4LDAuMjY0LDAgIGMwLjA4NCwwLjA0NywwLjEzNSwwLjEzNSwwLjEzNSwwLjIzdjEwLjEwMWMwLDAuMDk4LTAuMDUxLDAuMTg0LTAuMTM1LDAuMjMxbC04Ljc3NCw1LjA2NiAgQzI2LjM0LDMxLjczNCwyNi4yOTQsMzEuNzQ2LDI2LjI0OCwzMS43NDYiIGlkPSJwYXRoMTY0NSIvPiYjeGE7PC9zdmc+" vertex="1" parent="1">
                    <mxGeometry x="-629" y="-81" width="50" height="50" as="geometry"/>
                </mxCell>
                <mxCell id="90" value="Other APIs" style="shape=image;verticalLabelPosition=bottom;verticalAlign=top;imageAspect=0;aspect=fixed;image=data:image/svg+xml,PHN2ZyB4bWxuczpkYz0iaHR0cDovL3B1cmwub3JnL2RjL2VsZW1lbnRzLzEuMS8iIHhtbG5zOmNjPSJodHRwOi8vY3JlYXRpdmVjb21tb25zLm9yZy9ucyMiIHhtbG5zOnJkZj0iaHR0cDovL3d3dy53My5vcmcvMTk5OS8wMi8yMi1yZGYtc3ludGF4LW5zIyIgeG1sbnM6c3ZnPSJodHRwOi8vd3d3LnczLm9yZy8yMDAwL3N2ZyIgeG1sbnM9Imh0dHA6Ly93d3cudzMub3JnLzIwMDAvc3ZnIiB4bWxuczpzb2RpcG9kaT0iaHR0cDovL3NvZGlwb2RpLnNvdXJjZWZvcmdlLm5ldC9EVEQvc29kaXBvZGktMC5kdGQiIHhtbG5zOmlua3NjYXBlPSJodHRwOi8vd3d3Lmlua3NjYXBlLm9yZy9uYW1lc3BhY2VzL2lua3NjYXBlIiB2ZXJzaW9uPSIxLjEiIGlkPSJMYXllcl8xIiB4PSIwcHgiIHk9IjBweCIgd2lkdGg9IjUwcHgiIGhlaWdodD0iNTBweCIgdmlld0JveD0iMCAwIDUwIDUwIiBlbmFibGUtYmFja2dyb3VuZD0ibmV3IDAgMCA1MCA1MCIgeG1sOnNwYWNlPSJwcmVzZXJ2ZSIgc29kaXBvZGk6ZG9jbmFtZT0iVk0uc3ZnIiBpbmtzY2FwZTp2ZXJzaW9uPSIwLjkyLjMgKDI0MDU1NDYsIDIwMTgtMDMtMTEpIj48bWV0YWRhdGEgaWQ9Im1ldGFkYXRhMTY1MiI+PHJkZjpSREY+PGNjOldvcmsgcmRmOmFib3V0PSIiPjxkYzpmb3JtYXQ+aW1hZ2Uvc3ZnK3htbDwvZGM6Zm9ybWF0PjxkYzp0eXBlIHJkZjpyZXNvdXJjZT0iaHR0cDovL3B1cmwub3JnL2RjL2RjbWl0eXBlL1N0aWxsSW1hZ2UiLz48ZGM6dGl0bGUvPjwvY2M6V29yaz48L3JkZjpSREY+PC9tZXRhZGF0YT48ZGVmcyBpZD0iZGVmczE2NTAiLz48c29kaXBvZGk6bmFtZWR2aWV3IHBhZ2Vjb2xvcj0iI2ZmZmZmZiIgYm9yZGVyY29sb3I9IiM2NjY2NjYiIGJvcmRlcm9wYWNpdHk9IjEiIG9iamVjdHRvbGVyYW5jZT0iMTAiIGdyaWR0b2xlcmFuY2U9IjEwIiBndWlkZXRvbGVyYW5jZT0iMTAiIGlua3NjYXBlOnBhZ2VvcGFjaXR5PSIwIiBpbmtzY2FwZTpwYWdlc2hhZG93PSIyIiBpbmtzY2FwZTp3aW5kb3ctd2lkdGg9IjY0MCIgaW5rc2NhcGU6d2luZG93LWhlaWdodD0iNDgwIiBpZD0ibmFtZWR2aWV3MTY0OCIgc2hvd2dyaWQ9ImZhbHNlIiBpbmtzY2FwZTp6b29tPSI2LjI2IiBpbmtzY2FwZTpjeD0iMjUiIGlua3NjYXBlOmN5PSIyNSIgaW5rc2NhcGU6d2luZG93LXg9IjAiIGlua3NjYXBlOndpbmRvdy15PSIwIiBpbmtzY2FwZTp3aW5kb3ctbWF4aW1pemVkPSIxIiBpbmtzY2FwZTpjdXJyZW50LWxheWVyPSJMYXllcl8xIi8+JiN4YTs8cGF0aCBmaWxsPSIjN0E3QTdBIiBkPSJNMzMsMzhoLTEuMjA3SDE5Ljg5MmgtMC42MjFDMjAuOTIsNDMuOTk5LDE4LjcwNSw0NC44NTksOSw0NC44NTlWNDhoMTIuMzQyaDkuMDExSDQydi0zLjE0MSAgYy05LjcwNSwwLTEwLjY1Ni0wLjg1Ny05LjAwNS02Ljg1OSIgaWQ9InBhdGgxNjI5Ii8+JiN4YTs8cGF0aCBmaWxsPSIjQTBBMUEyIiBkPSJNNDYuOTgsMkgyLjcxOUMxLjIxNSwyLDAuMDAyLDMuMzQ1LDAuMDAyLDQuODQ3djMxLjMyOWMwLDEuNDkzLDEuMjEzLDIuODIzLDIuNzE3LDIuODIzSDQ2Ljk4ICBjMS41MDEsMCwzLjAyMS0xLjMzLDMuMDIxLTIuODIzVjQuODQ3QzUwLjAwMSwzLjM0MSw0OC40ODEsMiw0Ni45OCwyIiBpZD0icGF0aDE2MzEiLz4mI3hhOzxwYXRoIG9wYWNpdHk9IjAuMiIgZmlsbD0iI0ZGRkZGRiIgZW5hYmxlLWJhY2tncm91bmQ9Im5ldyAgICAiIGQ9Ik00Ny4wMTEsMi4wMDNjLTAuMDExLDAtMC4wMjEtMC4wMDItMC4wMzEtMC4wMDJIMi43MTggIGMtMS41MDQsMC0yLjcxNywxLjM0NC0yLjcxNywyLjg0N3YzMS4zMjhDMC4wMDEsMzcuNjcsMS4yMTQsMzksMi43MTgsMzloMS4wNTNMNDcuMDExLDIuMDAzeiIgaWQ9InBhdGgxNjMzIi8+JiN4YTs8cG9seWdvbiBmaWxsPSIjNTlCNEQ5IiBwb2ludHM9IjQ2LDYgNDYsMzUgNCwzNSA0LDYgIiBpZD0icG9seWdvbjE2MzUiLz4mI3hhOzxyZWN0IHg9IjkiIHk9IjQ1IiBmaWxsPSIjQTBBMUEyIiB3aWR0aD0iMzMiIGhlaWdodD0iMyIgaWQ9InJlY3QxNjM3Ii8+JiN4YTs8cGF0aCBmaWxsPSIjQjhENDMyIiBkPSJNMjUuNTE4LDQuMDk1YzAsMC4zOTItMC4zMTgsMC43MS0wLjcxLDAuNzFjLTAuMzkzLDAtMC43MDktMC4zMTgtMC43MDktMC43MWMwLTAuMzkzLDAuMzE2LTAuNzEsMC43MDktMC43MSAgQzI1LjIsMy4zODUsMjUuNTE4LDMuNzAyLDI1LjUxOCw0LjA5NSIgaWQ9InBhdGgxNjM5Ii8+JiN4YTs8cGF0aCBmaWxsPSIjRkZGRkZGIiBkPSJNMjUuMDI4LDE5LjM5NGMtMC4wNDUsMC0wLjA5MS0wLjAxNC0wLjEzNC0wLjAzOGwtOC44MDQtNS4wODJjLTAuMDgxLTAuMDQ4LTAuMTMyLTAuMTM3LTAuMTMyLTAuMjMxICBjMC0wLjA5NSwwLjA1MS0wLjE4MywwLjEzMi0wLjIzbDguNzUxLTUuMDQ5YzAuMDgyLTAuMDQ2LDAuMTgyLTAuMDQ2LDAuMjYzLDBsOC44MDcsNS4wODRjMC4wODIsMC4wNDcsMC4xMzEsMC4xMzUsMC4xMzEsMC4yMyAgYzAsMC4wOTYtMC4wNDksMC4xODMtMC4xMzEsMC4yM2wtOC43NDgsNS4wNDhDMjUuMTIsMTkuMzgsMjUuMDc2LDE5LjM5NCwyNS4wMjgsMTkuMzk0IiBpZD0icGF0aDE2NDEiLz4mI3hhOzxwYXRoIG9wYWNpdHk9IjAuNyIgZmlsbD0iI0ZGRkZGRiIgZW5hYmxlLWJhY2tncm91bmQ9Im5ldyAgICAiIGQ9Ik0yMy43NjMsMzEuNzQ2Yy0wLjA1LDAtMC4wOTUtMC4wMTItMC4xMzQtMC4wMzZsLTguNzc4LTUuMDY2ICBjLTAuMDg1LTAuMDQ3LTAuMTM2LTAuMTMzLTAuMTM2LTAuMjMxVjE2LjI0N2MwLTAuMDk2LDAuMDUxLTAuMTgzLDAuMTM2LTAuMjMxYzAuMDgxLTAuMDQ5LDAuMTgxLTAuMDQ5LDAuMjY4LDBsOC43NzcsNS4wNjQgIGMwLjA3OCwwLjA1LDAuMTMsMC4xMzcsMC4xMywwLjIzM3YxMC4xNjZjMCwwLjA5Ny0wLjA1MiwwLjE4My0wLjEzLDAuMjMxQzIzLjg1MiwzMS43MzQsMjMuODA2LDMxLjc0NiwyMy43NjMsMzEuNzQ2IiBpZD0icGF0aDE2NDMiLz4mI3hhOzxwYXRoIG9wYWNpdHk9IjAuNCIgZmlsbD0iI0ZGRkZGRiIgZW5hYmxlLWJhY2tncm91bmQ9Im5ldyAgICAiIGQ9Ik0yNi4yNDgsMzEuNzQ2Yy0wLjA0OCwwLTAuMDkzLTAuMDEyLTAuMTM4LTAuMDM2ICBjLTAuMDc4LTAuMDQ4LTAuMTI5LTAuMTM0LTAuMTI5LTAuMjMxVjIxLjM3N2MwLTAuMDk0LDAuMDUxLTAuMTgyLDAuMTI5LTAuMjMxbDguNzc3LTUuMDY0YzAuMDg0LTAuMDQ4LDAuMTgyLTAuMDQ4LDAuMjY0LDAgIGMwLjA4NCwwLjA0NywwLjEzNSwwLjEzNSwwLjEzNSwwLjIzdjEwLjEwMWMwLDAuMDk4LTAuMDUxLDAuMTg0LTAuMTM1LDAuMjMxbC04Ljc3NCw1LjA2NiAgQzI2LjM0LDMxLjczNCwyNi4yOTQsMzEuNzQ2LDI2LjI0OCwzMS43NDYiIGlkPSJwYXRoMTY0NSIvPiYjeGE7PC9zdmc+" vertex="1" parent="1">
                    <mxGeometry x="-530" y="-81" width="50" height="50" as="geometry"/>
                </mxCell>
            </root>
        </mxGraphModel>
    </diagram>
</mxfile>